<?xml version="1.0" encoding="UTF-8"?>
<!DOCTYPE svg PUBLIC "-//W3C//DTD SVG 1.1//EN" "http://www.w3.org/Graphics/SVG/1.1/DTD/svg11.dtd">
<!-- Creator: CorelDRAW -->
<svg xmlns="http://www.w3.org/2000/svg" xml:space="preserve" width="2657px" height="391px" version="1.1" style="shape-rendering:geometricPrecision; text-rendering:geometricPrecision; image-rendering:optimizeQuality; fill-rule:evenodd; clip-rule:evenodd"
viewBox="0 0 2769.61 407.79"
 xmlns:xlink="http://www.w3.org/1999/xlink"
 xmlns:xodm="http://www.corel.com/coreldraw/odm/2003">
 <defs>
  <style type="text/css">
   <![CDATA[
    .fil2 {fill:#D2FF1F;fill-rule:nonzero}
    .fil1 {fill:#FF6A00;fill-rule:nonzero}
    .fil3 {fill:url(#id0);fill-rule:nonzero}
    .fil0 {fill:url(#id1);fill-rule:nonzero}
   ]]>
  </style>
  <linearGradient id="id0" gradientUnits="userSpaceOnUse" x1="1612.44" y1="-57.33" x2="1753.94" y2="521.13">
   <stop offset="0" style="stop-opacity:1; stop-color:#451A37"/>
   <stop offset="0.258824" style="stop-opacity:1; stop-color:#733F63"/>
   <stop offset="0.521569" style="stop-opacity:1; stop-color:#965281"/>
   <stop offset="0.788235" style="stop-opacity:1; stop-color:#FF6A00"/>
   <stop offset="1" style="stop-opacity:1; stop-color:#D2FF1F"/>
  </linearGradient>
  <linearGradient id="id1" gradientUnits="userSpaceOnUse" x1="410.04" y1="388.31" x2="133.15" y2="19.48">
   <stop offset="0" style="stop-opacity:1; stop-color:#451A37"/>
   <stop offset="0.211765" style="stop-opacity:1; stop-color:#733F63"/>
   <stop offset="0.490196" style="stop-opacity:1; stop-color:#965281"/>
   <stop offset="0.729412" style="stop-opacity:1; stop-color:#FF6A00"/>
   <stop offset="1" style="stop-opacity:1; stop-color:#D2FF1F"/>
  </linearGradient>
 </defs>
 <g id="Camada_x0020_1">
  <metadata id="CorelCorpID_0Corel-Layer"/>
  <g id="_2172154121824">
   <path class="fil0" d="M517.32 331.8c0,27.64 -22.48,50.12 -50.11,50.12l-391.23 0c-8.22,0 -16,-1.99 -22.85,-5.52l218.13 -238.99 77.09 84.46 23.61 25.87 145.36 0 0 84.06zm-491.45 0l0 -201.1c0,-27.64 22.48,-50.12 50.11,-50.12l129.01 0 0 -37.86c0,-9.3 7.56,-16.85 16.84,-16.85l99.53 0c9.28,0 16.84,7.55 16.84,16.85l0 37.86 129.01 0c27.63,0 50.11,22.48 50.11,50.12l0 91.17 -133.95 0 -94.6 -103.64 -17.51 -19.19 -17.51 19.18 -219.81 240.84c-5.11,-7.86 -8.07,-17.22 -8.07,-27.26zm441.34 -277.09l-103.14 0 0 -11.99c0,-23.56 -19.16,-42.72 -42.71,-42.72l-99.53 0c-23.55,0 -42.71,19.16 -42.71,42.72l0 11.99 -103.14 0c-41.9,0 -75.98,34.09 -75.98,75.99l0 201.1c0,17.63 6.03,33.86 16.13,46.76 5.34,6.83 11.83,12.72 19.16,17.39 11.77,7.49 25.73,11.84 40.69,11.84l391.23 0c41.9,0 75.98,-34.09 75.98,-75.99l0 -201.1c0,-41.9 -34.08,-75.99 -75.98,-75.99z"/>
   <g>
    <path class="fil1" d="M286.85 253.37l46.79 27.02c0.06,-1.06 0.09,-2.12 0.09,-3.16 0,-19.64 -9.49,-38.12 -25.41,-49.61l-33.07 19.09 11.58 6.69 0.02 -0.03z"/>
    <path class="fil1" d="M238.9 328.23c10,6.63 21.61,10.13 33.7,10.13 7.6,0 15.01,-1.38 22.03,-4.1l0 -38.22 -7.83 4.53 0.01 0 -47.91 27.66z"/>
    <path class="fil1" d="M299.17 265.73l0 66.56c18.41,-8.9 31.32,-26.67 34.02,-46.93l-34.02 -19.63z"/>
    <path class="fil1" d="M211.49 275.66c-0.01,0.53 -0.02,1.06 -0.02,1.57 0,18.93 8.52,36.41 23.4,48.09l31.28 -18.06 -23.96 -13.84 0 -0.03 -30.7 -17.73z"/>
    <path class="fil1" d="M246.67 221.86l0 36.08 24.01 -13.86 0.03 0.01 33.38 -19.27c-9.49,-5.71 -20.34,-8.72 -31.49,-8.72 -9.07,0 -17.79,1.94 -25.93,5.76z"/>
    <path class="fil1" d="M211.83 270.62l30.37 17.53 0 -7.87 -0.07 0 0 -56.06c-16.98,9.77 -28.21,26.93 -30.3,46.4z"/>
   </g>
   <path class="fil2" d="M141.68 130.05l-55.74 0c-4.6,0 -8.34,-3.74 -8.34,-8.35l0 -0.12c0,-4.61 3.74,-8.34 8.34,-8.34l55.74 0c4.61,0 8.35,3.73 8.35,8.34l0 0.12c0,4.61 -3.74,8.35 -8.35,8.35z"/>
  </g>
  <path class="fil3" d="M596.76 85.24l0 293.76 63.73 0 0 -293.76 -63.73 0zm199.48 293.76l0 -217.38 116.11 200.35c9.6,16.15 25.75,22.7 44.52,22.7 23.13,0 44.52,-16.59 44.52,-45.83l0 -253.6 -60.24 0 0 216.06 -116.1 -199.04c-9.61,-16.15 -24.88,-23.13 -44.09,-23.13 -24.01,0 -45.39,17.02 -45.39,46.27l0 253.6 60.67 0zm375.38 5.67c62.42,0 112.18,-38.41 112.18,-91.23 0,-66.78 -57.62,-82.49 -101.27,-89.91 -31.86,-5.68 -56.3,-11.79 -56.3,-35.36 0,-17.89 16.58,-29.24 40.59,-29.24 29.68,0 48.88,13.09 58.49,31.86l53.25 -26.63c-18.77,-41.9 -60.67,-64.16 -109.12,-64.16 -60.67,0 -106.94,39.28 -106.94,90.79 0,66.35 59.8,82.06 103.88,89.48 30.56,5.24 53.69,9.17 53.69,33.61 0,20.95 -20.95,32.3 -48.45,32.3 -30.55,0 -51.07,-10.91 -60.67,-32.3l-53.25 26.63c18.77,41.9 61.1,64.16 113.92,64.16zm374.51 -299.43l-236.58 0 0 58.92 86.43 0 0 234.84 63.72 0 0 -234.84 86.43 0 0 -58.92zm-3.49 293.76l65.03 0 17.03 -59.8 119.16 -0.44 17.02 60.24 65.04 0 -77.7 -252.29c-10.04,-31.87 -36.23,-47.15 -64.16,-47.15 -27.5,0 -53.69,15.28 -63.73,47.15l-77.69 252.29zm132.25 -233.53c1.75,-6.11 4.8,-8.73 9.6,-8.73 5.24,0 7.86,2.62 9.61,8.73l33.17 116.55 -85.99 0 33.61 -116.55zm264.95 233.53l0 -116.98 134 0 0 116.98 63.73 0 0 -293.76 -63.73 0 0 118.29 -134 0 0 -118.29 -63.73 0 0 293.76 63.73 0zm396.77 4.8c87.3,0 127.89,-50.64 127.89,-135.31l0 -163.25 -63.73 0 0 161.94c0,51.07 -20.95,75.95 -64.16,75.95 -43.21,0 -64.16,-24.88 -64.16,-75.95l0 -161.94 -63.73 0 0 163.25c0,84.67 40.15,135.31 127.89,135.31zm311.65 -4.8c70.28,0 121.35,-24.45 121.35,-82.06 0,-37.11 -19.64,-55.88 -48.89,-64.17 27.94,-10.47 45.83,-33.17 45.83,-66.78 0,-50.2 -44.08,-80.75 -117.41,-80.75l-113.49 0 0 293.76 112.61 0zm-48.88 -241.38l53.25 0c32.74,0 50.2,11.78 50.2,33.61 0,24 -15.72,36.23 -50.64,36.23l-52.81 0 0 -69.84zm0 122.21l52.81 0c35.79,0 53.69,7.86 53.69,32.74 0,27.06 -23.13,34.05 -54.12,34.05l-52.38 0 0 -66.79z"/>
 </g>
</svg>
