<?xml version="1.0" encoding="UTF-8"?>
<!DOCTYPE svg PUBLIC "-//W3C//DTD SVG 1.1//EN" "http://www.w3.org/Graphics/SVG/1.1/DTD/svg11.dtd">
<!-- Creator: CorelDRAW -->
<svg xmlns="http://www.w3.org/2000/svg" xml:space="preserve" width="3235px" height="944px" version="1.1" style="shape-rendering:geometricPrecision; text-rendering:geometricPrecision; image-rendering:optimizeQuality; fill-rule:evenodd; clip-rule:evenodd"
viewBox="0 0 3421.09 998.07"
 xmlns:xlink="http://www.w3.org/1999/xlink"
 xmlns:xodm="http://www.corel.com/coreldraw/odm/2003">
 <defs>
  <style type="text/css">
   <![CDATA[
    .str0 {stroke:#01FBA1;stroke-width:12.49;stroke-miterlimit:22.9256}
    .fil3 {fill:none}
    .fil2 {fill:none;fill-rule:nonzero}
    .fil0 {fill:#012928;fill-rule:nonzero}
    .fil1 {fill:#01FBA1;fill-rule:nonzero}
   ]]>
  </style>
 </defs>
 <g id="Camada_x0020_1">
  <metadata id="CorelCorpID_0Corel-Layer"/>
  <g id="_2889119270192">
   <g>
    <g>
     <path class="fil0" d="M520.3 870.47l-10.72 0c3.6,0 7.17,-0.09 10.72,-0.22l0 0.22zm-10.72 0l-10.72 0 0 -0.22c3.56,0.13 7.13,0.22 10.72,0.22zm-10.72 -576.09l0 -144.31 21.44 0 0 144.31c-3.55,-0.14 -7.12,-0.22 -10.72,-0.22 -3.59,0 -7.16,0.08 -10.72,0.22z"/>
     <path class="fil0" d="M573.98 864.82l-0.32 -1.51c7.02,-1.59 13.94,-3.44 20.75,-5.54l0.55 2.6 -20.98 4.45zm-120.14 -565.26l-29.63 -139.38 20.97 -4.46 29.87 140.5c-7.16,0.86 -14.23,1.98 -21.21,3.34z"/>
     <path class="fil0" d="M646.29 843.69l-2.76 -6.2c6.38,-3.36 12.61,-6.94 18.69,-10.75l3.67 8.23 -19.6 8.72zm-236.72 -531.69l-56.29 -126.42 19.59 -8.73 57.18 128.43c-6.94,1.99 -13.77,4.23 -20.48,6.72z"/>
     <path class="fil0" d="M712.63 807.98l-9.11 -12.54c5.34,-4.87 10.5,-9.94 15.47,-15.19l10.99 15.12 -17.35 12.61zm-345.84 -476l-77.6 -106.81 17.35 -12.6 79.46 109.37c-6.54,3.11 -12.95,6.46 -19.21,10.04z"/>
     <path class="fil0" d="M770.09 759.26l-20.08 -18.08c4.01,-6.06 7.79,-12.27 11.35,-18.64l23.08 20.79 -14.35 15.93zm-443.63 -399.44l-91.73 -82.6 14.35 -15.94 94.74 85.31c-5.95,4.2 -11.75,8.6 -17.36,13.23z"/>
     <path class="fil0" d="M816.17 699.66l-35.19 -20.32c2.46,-6.86 4.65,-13.85 6.59,-20.95l39.31 22.7 -10.71 18.57zm-526.24 -303.83l-97.65 -56.38 10.72 -18.56 101.77 58.75c-5.15,5.21 -10.1,10.61 -14.84,16.19z"/>
     <path class="fil0" d="M848.84 631.78l-52.9 -17.19c0.8,-7.27 1.34,-14.61 1.6,-22.02l57.93 18.82 -6.63 20.39zm-589.92 -191.68l-95.21 -30.94 6.62 -20.38 100.22 32.56c-4.11,6.09 -7.98,12.35 -11.63,18.76z"/>
     <path class="fil0" d="M866.7 558.59l-70.64 -7.42 -0.01 -0.08c-0.13,-1.23 -0.27,-2.47 -0.42,-3.69 -0.15,-1.24 -0.31,-2.48 -0.47,-3.71 -0.14,-1.07 -0.29,-2.14 -0.45,-3.2l-0.05 -0.34c-0.18,-1.25 -0.37,-2.5 -0.57,-3.74 -0.16,-1.02 -0.33,-2.03 -0.5,-3.04 -0.24,-1.37 -0.48,-2.74 -0.74,-4.11l76.08 8 -2.23 21.33zm-630.91 -66.31l-85.55 -8.99 2.24 -21.33 91.03 9.57c-0.51,1.22 -1.01,2.45 -1.51,3.68 -0.4,1 -0.79,2 -1.18,3.01 -0.42,1.1 -0.84,2.19 -1.25,3.3 -0.47,1.25 -0.93,2.51 -1.38,3.77 -0.29,0.81 -0.58,1.64 -0.87,2.46 -0.52,1.5 -1.03,3.02 -1.53,4.53z"/>
     <path class="fil0" d="M152.48 558.59l-2.24 -21.33 76.08 -8c-1.34,7.21 -2.41,14.52 -3.21,21.91l-70.63 7.42zm623.18 -87.06l91.04 -9.57 2.23 21.33 -85.55 8.99c-2.32,-7.04 -4.89,-13.96 -7.72,-20.75z"/>
     <path class="fil0" d="M170.33 631.78l-6.62 -20.39 57.92 -18.82c0.26,7.41 0.8,14.75 1.61,22.02l-52.91 17.19zm578.29 -210.44l100.22 -32.56 6.63 20.38 -95.22 30.94c-3.65,-6.41 -7.52,-12.67 -11.63,-18.76z"/>
     <path class="fil0" d="M203 699.66l-10.72 -18.57 39.32 -22.7c1.94,7.1 4.14,14.08 6.59,20.95l-35.19 20.32zm511.4 -320.02l101.77 -58.75 10.71 18.56 -97.64 56.38c-4.74,-5.58 -9.69,-10.98 -14.84,-16.19z"/>
     <path class="fil0" d="M249.08 759.26l-14.35 -15.93 23.08 -20.79c3.56,6.37 7.34,12.58 11.35,18.64l-20.08 18.08zm426.27 -412.67l94.74 -85.31 14.35 15.94 -91.73 82.6c-5.61,-4.62 -11.41,-9.03 -17.36,-13.23z"/>
     <path class="fil0" d="M306.54 807.98l-17.35 -12.61 10.99 -15.12c4.97,5.25 10.12,10.32 15.47,15.19l-9.11 12.54zm326.62 -486.04l79.47 -109.37 17.35 12.6 -77.6 106.81c-6.26,-3.58 -12.67,-6.93 -19.22,-10.04z"/>
     <path class="fil0" d="M372.87 843.69l-19.59 -8.72 3.66 -8.23c6.08,3.81 12.32,7.39 18.69,10.75l-2.76 6.2zm216.24 -538.41l57.18 -128.43 19.6 8.73 -56.29 126.42c-6.71,-2.49 -13.55,-4.73 -20.49,-6.72z"/>
     <path class="fil0" d="M445.18 864.82l-20.97 -4.45 0.55 -2.6c6.81,2.1 13.73,3.94 20.74,5.54l-0.32 1.51zm98.94 -568.6l29.86 -140.5 20.98 4.46 -29.63 139.38c-6.98,-1.37 -14.06,-2.48 -21.21,-3.34z"/>
    </g>
    <g>
     <path class="fil1" d="M504.42 870.4l0 -325.64 3.04 -14.31 0 210.87c0.71,0.01 1.41,0.03 2.12,0.03 0.71,0 1.42,-0.02 2.12,-0.03l0 -210.89 3.05 14.32 0 325.65c-1.72,0.03 -3.44,0.07 -5.17,0.07 -1.72,0 -3.44,-0.04 -5.16,-0.07zm0 -394.61l0 -181.57 3.04 -0.05 0 195.92 -3.04 -14.3zm7.28 -181.62l3.05 0.05 0 181.58 -3.05 14.31 0 -195.94z"/>
     <path class="fil1" d="M579.07 862.01l-67.37 -316.95 0 -14.62 43.86 206.33c1.39,-0.28 2.77,-0.58 4.14,-0.89l-43.85 -206.31 5.96 13.38 67.25 316.41c-3.3,0.95 -6.64,1.82 -9.99,2.65zm-81.7 -384.39l-38.07 -179.08c1,-0.18 2,-0.35 3,-0.51l41.02 192.95 -5.95 -13.36zm-30.87 -180.24c1,-0.15 2.01,-0.3 3.02,-0.44l37.94 178.52 0 14.64 -40.96 -192.72z"/>
     <path class="fil1" d="M648.44 834.85l-129.55 -290.97 -3.04 -14.31 85.79 192.69c1.3,-0.56 2.6,-1.13 3.89,-1.72l-85.8 -192.7 8.59 11.83 129.12 290.01c-2.97,1.77 -5.96,3.5 -9,5.17zm-157.61 -354l-76.01 -170.73c0.96,-0.33 1.92,-0.66 2.88,-0.99l81.72 183.55 -8.59 -11.83zm-69.07 -173.05c0.97,-0.32 1.94,-0.62 2.92,-0.92l75.6 169.8 3.04 14.3 -81.56 -183.18z"/>
     <path class="fil1" d="M707.62 791.62l-181.95 -250.43 -5.94 -13.35 123.96 170.62c1.16,-0.82 2.29,-1.66 3.43,-2.5l-123.95 -170.59 10.86 9.77 181.04 249.17c-2.45,2.48 -4.92,4.92 -7.45,7.31zm-222.47 -306.2l-113.47 -156.18c0.9,-0.49 1.79,-0.97 2.7,-1.45l121.63 167.41 -10.86 -9.78zm-106.96 -159.61c0.91,-0.47 1.82,-0.93 2.74,-1.39l112.55 154.92 5.94 13.34 -121.23 -166.87z"/>
     <path class="fil1" d="M753.07 736.46l-221.29 -199.25 -8.61 -11.85 156.7 141.1c0.95,-1.05 1.9,-2.1 2.84,-3.16l-156.7 -141.09 12.69 7.33 219.84 197.95c-1.77,3.02 -3.59,6.01 -5.47,8.97zm-272.59 -245.44l-149.64 -134.73c2.75,-2.18 5.54,-4.3 8.37,-6.37l148.2 133.44 8.6 11.84 -156.71 -141.11c-0.96,1.04 -1.9,2.1 -2.84,3.16l156.7 141.09 -12.68 -7.32z"/>
     <path class="fil1" d="M782.84 674l-245.98 -142.02 -10.84 -9.76 182.62 105.44c0.73,-1.22 1.44,-2.44 2.14,-3.68l-182.63 -105.44 13.89 4.51 243.97 140.86c-1,3.38 -2.05,6.75 -3.17,10.09zm-305.69 -176.49l-183.52 -105.96c2.34,-2.64 4.71,-5.24 7.13,-7.8l181.54 104.81 10.86 9.78 -182.64 -105.44c-0.72,1.21 -1.43,2.44 -2.13,3.67l182.64 105.45 -13.88 -4.51z"/>
     <path class="fil1" d="M796.51 608.93l-255.71 -83.09 -12.65 -7.3 200.59 65.17c0.45,-1.34 0.88,-2.68 1.3,-4.03l-200.61 -65.19 14.55 1.53 253.31 82.31c-0.19,3.55 -0.46,7.08 -0.78,10.6zm-321.33 -104.41l-213.39 -69.33c1.81,-3.05 3.67,-6.07 5.59,-9.04l210.98 68.55 12.67 7.32 -200.59 -65.18c-0.45,1.34 -0.89,2.69 -1.32,4.04l200.58 65.17 -14.52 -1.53z"/>
     <path class="fil1" d="M795.41 545.51l-252.07 -26.5 -13.91 -4.52 209.73 22.05c0.16,-1.4 0.31,-2.82 0.45,-4.22l-209.71 -22.05 14.55 -1.53 249.4 26.22c0.58,3.5 1.11,7.01 1.56,10.55zm-320.68 -33.71l-237.1 -24.92c1.18,-3.36 2.4,-6.7 3.7,-10l234.45 24.65 13.92 4.52 -209.69 -22.04c-0.16,1.4 -0.31,2.81 -0.45,4.22l209.71 22.04 -14.54 1.53z"/>
     <path class="fil1" d="M225.32 534.96l249.41 -26.22 14.54 1.53 -209.71 22.05c0.14,1.4 0.29,2.82 0.45,4.22l209.72 -22.04 -13.89 4.51 -252.08 26.5c0.45,-3.54 0.98,-7.05 1.56,-10.55zm318.06 -33.43l234.46 -24.65c1.3,3.3 2.52,6.64 3.7,10l-237.11 24.92 -14.53 -1.53 209.71 -22.04c-0.14,-1.41 -0.29,-2.82 -0.45,-4.22l-209.69 22.04 13.91 -4.52z"/>
     <path class="fil1" d="M221.88 598.33l253.31 -82.31 14.54 -1.52 -200.61 65.18c0.43,1.35 0.87,2.69 1.32,4.03l200.56 -65.16 -12.65 7.3 -255.69 83.08c-0.32,-3.52 -0.59,-7.05 -0.78,-10.6zm318.92 -103.63l210.99 -68.55c1.92,2.97 3.78,5.99 5.59,9.04l-213.38 69.33 -14.53 1.53 200.58 -65.17c-0.43,-1.35 -0.86,-2.7 -1.31,-4.04l-200.61 65.18 12.67 -7.32z"/>
     <path class="fil1" d="M233.16 663.91l243.97 -140.85 13.87 -4.51 -182.61 105.43c0.7,1.23 1.41,2.46 2.13,3.68l182.64 -105.45 -10.85 9.77 -245.98 142.02c-1.12,-3.34 -2.17,-6.7 -3.17,-10.09zm303.71 -175.34l181.54 -104.82c2.43,2.56 4.8,5.16 7.13,7.8l-183.52 105.96 -13.89 4.51 182.65 -105.45c-0.7,-1.24 -1.41,-2.46 -2.14,-3.68l-182.62 105.44 10.85 -9.76z"/>
     <path class="fil1" d="M260.63 727.48l219.86 -197.96 12.67 -7.31 -156.7 141.09c0.94,1.06 1.88,2.11 2.84,3.16l156.69 -141.09 -8.61 11.85 -221.28 199.25c-1.88,-2.96 -3.7,-5.96 -5.47,-8.99zm271.12 -244.11l148.21 -133.45c2.83,2.07 5.62,4.2 8.36,6.37l-149.62 134.72 -12.68 7.32 156.69 -141.08c-0.94,-1.06 -1.89,-2.11 -2.84,-3.16l-156.71 141.11 8.59 -11.83z"/>
     <path class="fil1" d="M304.11 784.31l181.04 -249.18 10.84 -9.76 -123.94 170.59c1.13,0.84 2.27,1.68 3.43,2.5l123.94 -170.59 -5.94 13.35 -181.93 250.4c-2.53,-2.39 -5.01,-4.83 -7.44,-7.31zm221.56 -304.95l112.57 -154.94c0.92,0.46 1.83,0.92 2.74,1.39l-121.24 166.88 5.93 -13.33zm119.12 -151.57c0.9,0.48 1.8,0.97 2.7,1.45l-113.46 156.17 -10.87 9.79 121.63 -167.41z"/>
     <path class="fil1" d="M361.72 829.68l129.12 -290 8.58 -11.82 -85.78 192.68c1.28,0.59 2.58,1.16 3.88,1.72l85.8 -192.7 -3.05 14.32 -129.54 290.97c-3.04,-1.67 -6.04,-3.4 -9.01,-5.17zm157.17 -353l75.6 -169.8c0.98,0.3 1.95,0.61 2.92,0.92l-81.56 183.16 3.04 -14.28zm82.57 -167.55c0.97,0.33 1.93,0.66 2.89,0.99l-76.01 170.73 -8.6 11.84 81.72 -183.56z"/>
     <path class="fil1" d="M430.11 859.36l67.26 -316.43 5.95 -13.37 -43.86 206.32c1.38,0.31 2.76,0.61 4.15,0.89l43.85 -206.32 0 14.63 -67.37 316.93c-3.35,-0.82 -6.68,-1.7 -9.98,-2.65zm81.59 -383.87l37.95 -178.55c1.01,0.14 2.02,0.29 3.02,0.44l-40.97 192.73 0 -14.62zm4.15 15.48l41.01 -192.94c1.01,0.16 2.01,0.33 3.01,0.51l-38.06 179.05 -5.96 13.38z"/>
    </g>
   </g>
   <g>
    <path class="fil0" d="M1080.9 703.42l-76.08 0 0 -380.49 76.08 0 0 380.49zm135.31 0l-72.36 0 0 -284.21 17.48 0 23.91 27.62c11.68,-10.6 24.9,-18.84 39.67,-24.54 14.76,-5.71 30.16,-8.61 46.28,-8.61 17.3,0 33.69,3.26 49.09,9.97 15.4,6.61 28.8,15.67 40.3,27.26 11.51,11.59 20.56,25.18 27.26,40.66 6.62,15.49 9.88,31.98 9.88,49.46l0 162.39 -72.37 0 0 -162.39c0,-7.43 -1.45,-14.49 -4.26,-21.11 -2.89,-6.61 -6.7,-12.4 -11.68,-17.39 -4.98,-4.89 -10.69,-8.78 -17.3,-11.68 -6.52,-2.81 -13.49,-4.26 -20.92,-4.26 -7.61,0 -14.76,1.45 -21.47,4.26 -6.79,2.9 -12.59,6.79 -17.57,11.68 -4.89,4.99 -8.78,10.78 -11.68,17.39 -2.81,6.62 -4.26,13.68 -4.26,21.11l0 162.39zm389.01 0l-165.57 0 0 -72.18 165.57 0c4.98,0 9.23,-1.73 12.77,-5.26 3.53,-3.62 5.34,-7.79 5.34,-12.77 0,-5.16 -1.81,-8.51 -5.34,-10.05 -3.54,-1.63 -7.79,-2.45 -12.77,-2.45l-75.36 0c-12.5,0 -24.27,-2.35 -35.23,-7.15 -10.96,-4.8 -20.56,-11.23 -28.71,-19.47 -8.15,-8.25 -14.49,-17.85 -19.2,-28.81 -4.71,-10.96 -7.07,-22.73 -7.07,-35.32 0,-12.5 2.36,-24.27 7.07,-35.23 4.71,-10.96 11.05,-20.56 19.2,-28.71 8.15,-8.15 17.75,-14.49 28.71,-19.2 10.96,-4.71 22.73,-7.07 35.23,-7.07l146.73 0 0 72.19 -146.73 0c-4.89,0 -9.15,1.81 -12.68,5.34 -3.53,3.53 -5.34,7.79 -5.34,12.68 0,5.16 1.81,9.51 5.34,13.13 3.53,3.63 7.79,5.44 12.68,5.44l75.36 0c12.4,0 24.09,2.08 35.05,6.25 10.96,4.16 20.56,9.96 28.71,17.39 8.06,7.42 14.58,16.39 19.29,26.81 4.8,10.41 7.16,21.82 7.16,34.23 0,12.59 -2.36,24.28 -7.16,35.14 -4.71,10.87 -11.23,20.47 -19.29,28.62 -8.15,8.25 -17.75,14.77 -28.71,19.39 -10.96,4.71 -22.65,7.06 -35.05,7.06zm271.26 0c-17.48,0 -33.97,-3.35 -49.36,-9.96 -15.4,-6.61 -28.9,-15.76 -40.49,-27.35 -11.59,-11.6 -20.65,-25.09 -27.35,-40.4 -6.61,-15.4 -9.87,-31.88 -9.87,-49.36l0 -84.41 -35.33 0 0 -72.19 35.33 0 0 -113.58 72.18 0 0 113.58 109.77 0 0 72.19 -109.77 0 0 84.41c0,7.61 1.36,14.67 4.17,21.37 2.9,6.62 6.79,12.41 11.68,17.3 4.98,4.99 10.78,8.97 17.57,11.87 6.7,2.9 13.86,4.35 21.47,4.35l54.88 0 0 72.18 -54.88 0zm370.71 0l-17.57 0 -28.08 -39.03c-6.89,6.24 -14.22,12.04 -21.92,17.38 -7.7,5.44 -15.76,10.15 -24.27,14.04 -8.52,3.99 -17.21,7.16 -26.09,9.42 -8.96,2.36 -18.02,3.53 -27.26,3.53 -19.93,0 -38.76,-3.44 -56.33,-10.14 -17.67,-6.7 -33.06,-16.48 -46.2,-29.25 -13.22,-12.86 -23.54,-28.53 -31.15,-47.1 -7.61,-18.66 -11.42,-39.76 -11.42,-63.49 0,-22.1 3.81,-42.39 11.42,-60.87 7.61,-18.47 17.93,-34.32 31.15,-47.64 13.14,-13.22 28.53,-23.54 46.2,-30.88 17.57,-7.34 36.4,-11.05 56.33,-11.05 9.24,0 18.3,1.18 27.35,3.44 9.06,2.36 17.75,5.53 26.27,9.6 8.51,4.08 16.57,8.79 24.27,14.31 7.7,5.44 14.95,11.41 21.65,17.75l28.08 -33.69 17.57 0 0 283.67zm-73 -144.64c0,-9.87 -1.91,-19.47 -5.71,-28.8 -3.8,-9.24 -8.97,-17.48 -15.49,-24.64 -6.61,-7.15 -14.22,-12.95 -23,-17.21 -8.7,-4.35 -18.03,-6.52 -27.99,-6.52 -9.87,0 -19.2,1.63 -27.99,4.98 -8.69,3.45 -16.3,8.34 -22.82,14.86 -6.43,6.61 -11.5,14.67 -15.22,24.36 -3.71,9.6 -5.61,20.65 -5.61,32.97 0,12.41 1.9,23.46 5.61,33.06 3.72,9.6 8.79,17.75 15.22,24.27 6.52,6.52 14.13,11.5 22.82,14.85 8.79,3.36 18.12,5.08 27.99,5.08 9.96,0 19.29,-2.18 27.99,-6.53 8.78,-4.34 16.39,-10.05 23,-17.2 6.52,-7.16 11.69,-15.4 15.49,-24.73 3.8,-9.24 5.71,-18.84 5.71,-28.8z"/>
    <path class="fil2 str0" d="M2386.12 703.42l-76.08 0 0 -380.49 76.08 0 0 152.25 152.07 0 0 -152.25 76.17 0 0 380.49 -76.17 0 0 -152.07 -152.07 0 0 152.07zm496.24 -33.15c-5.79,5.25 -12.04,10.33 -18.65,14.95 -6.62,4.71 -13.59,8.78 -20.83,12.22 -7.25,3.45 -14.77,6.16 -22.47,8.25 -7.7,1.99 -15.48,3.07 -23.45,3.07 -17.48,0 -33.97,-3.17 -49.37,-9.32 -15.39,-6.16 -28.89,-15.04 -40.48,-26.36 -11.6,-11.41 -20.65,-25.36 -27.26,-41.66 -6.71,-16.4 -9.97,-34.78 -9.97,-55.07l0 -157.14 72.19 0 0 157.14c0,9.51 1.45,18.02 4.35,25.54 2.89,7.52 6.88,13.86 11.77,19.02 4.98,5.07 10.78,8.97 17.39,11.68 6.61,2.63 13.77,3.99 21.38,3.99 7.42,0 14.49,-1.72 21.1,-5.16 6.61,-3.54 12.41,-8.06 17.39,-13.68 4.98,-5.71 8.87,-12.14 11.68,-19.29 2.81,-7.16 4.26,-14.49 4.26,-22.1l0 -157.14 72.37 0 0 284.21 -17.49 0 -23.91 -33.15zm381.04 -111.49c0,22.28 -3.81,42.66 -11.41,61.04 -7.61,18.39 -17.94,34.24 -30.98,47.37 -13.13,13.23 -28.44,23.37 -46.1,30.62 -17.57,7.33 -36.5,10.95 -56.61,10.95 -20.01,0 -38.76,-3.71 -56.42,-11.14 -17.57,-7.42 -32.97,-17.84 -46.2,-31.06 -13.13,-13.32 -23.54,-29.07 -31.15,-47.37 -7.61,-18.3 -11.41,-38.4 -11.41,-60.41l0 -252.61 72.73 0 0 132.69c3.89,-4.98 8.6,-9.33 14.21,-13.22 5.53,-3.9 11.6,-7.07 18.03,-9.6 6.43,-2.45 13.13,-4.35 20.01,-5.71 6.89,-1.27 13.68,-1.99 20.2,-1.99 20.11,0 39.04,3.8 56.61,11.32 17.66,7.52 32.97,17.93 46.1,31.43 13.04,13.4 23.37,29.34 30.98,47.64 7.6,18.29 11.41,38.31 11.41,60.05zm-72.91 0c0,-10.96 -1.9,-21.19 -5.71,-30.61 -3.8,-9.52 -8.97,-17.67 -15.58,-24.55 -6.52,-6.88 -14.13,-12.32 -22.91,-16.21 -8.79,-3.9 -18.12,-5.8 -27.99,-5.8 -9.96,0 -19.29,2.17 -27.98,6.52 -8.79,4.26 -16.4,10.06 -23.01,17.21 -6.52,7.16 -11.68,15.4 -15.4,24.64 -3.71,9.33 -5.52,18.93 -5.52,28.8 0,10.96 1.81,21.19 5.52,30.52 3.72,9.42 8.88,17.57 15.4,24.45 6.61,6.89 14.22,12.32 23.01,16.31 8.69,3.98 18.02,5.98 27.98,5.98 9.87,0 19.2,-2 27.99,-5.98 8.78,-3.99 16.39,-9.42 22.91,-16.31 6.61,-6.88 11.78,-15.03 15.58,-24.45 3.81,-9.33 5.71,-19.56 5.71,-30.52z"/>
   </g>
  </g>
  <rect class="fil3" width="3421.09" height="998.07"/>
 </g>
</svg>
