<?xml version="1.0" encoding="UTF-8"?>
<!DOCTYPE svg PUBLIC "-//W3C//DTD SVG 1.1//EN" "http://www.w3.org/Graphics/SVG/1.1/DTD/svg11.dtd">
<!-- Creator: CorelDRAW -->
<svg xmlns="http://www.w3.org/2000/svg" xml:space="preserve" width="1255px" height="1104px" version="1.1" style="shape-rendering:geometricPrecision; text-rendering:geometricPrecision; image-rendering:optimizeQuality; fill-rule:evenodd; clip-rule:evenodd"
viewBox="0 0 2448.65 2154.71"
 xmlns:xlink="http://www.w3.org/1999/xlink"
 xmlns:xodm="http://www.corel.com/coreldraw/odm/2003">
 <defs>
  <style type="text/css">
   <![CDATA[
    .fil2 {fill:#012928}
    .fil0 {fill:#012928;fill-rule:nonzero}
    .fil1 {fill:#01FBA1;fill-rule:nonzero}
   ]]>
  </style>
 </defs>
 <g id="Camada_x0020_1">
  <metadata id="CorelCorpID_0Corel-Layer"/>
  <g id="_2494483469552">
   <path class="fil0" d="M1200.7 1329.11l-19.78 0c6.62,0 13.21,-0.16 19.78,-0.4l0 0.4zm-19.78 0l-19.79 0 0 -0.4c6.57,0.24 13.16,0.4 19.79,0.4zm-19.79 -1062.88l0 -266.23 39.57 0 0 266.23c-6.57,-0.24 -13.16,-0.4 -19.78,-0.4 -6.63,0 -13.22,0.16 -19.79,0.4z"/>
   <path class="fil0" d="M1299.73 1318.69l-0.59 -2.79c12.94,-2.94 25.71,-6.35 38.27,-10.22l1.02 4.8 -38.7 8.21zm-221.66 -1042.88l-54.67 -257.17 38.7 -8.22 55.1 259.22c-13.2,1.58 -26.25,3.64 -39.13,6.17z"/>
   <path class="fil0" d="M1433.15 1279.71l-5.1 -11.45c11.76,-6.19 23.27,-12.8 34.49,-19.82l6.75 15.17 -36.14 16.1zm-436.76 -980.96l-103.85 -233.24 36.15 -16.1 105.49 236.94c-12.8,3.67 -25.4,7.81 -37.79,12.4z"/>
   <path class="fil0" d="M1555.54 1213.83l-16.82 -23.15c9.87,-8.98 19.38,-18.33 28.55,-28.02l20.27 27.9 -32 23.27zm-638.08 -878.22l-143.17 -197.06 32.02 -23.25 146.61 201.79c-12.07,5.74 -23.9,11.91 -35.46,18.52z"/>
   <path class="fil0" d="M1661.55 1123.93l-37.05 -33.36c7.4,-11.17 14.38,-22.64 20.93,-34.38l42.6 38.35 -26.48 29.39zm-818.49 -736.96l-169.24 -152.38 26.48 -29.41 174.8 157.39c-10.99,7.74 -21.68,15.87 -32.04,24.4z"/>
   <path class="fil0" d="M1746.56 1013.97l-64.92 -37.49c4.53,-12.66 8.58,-25.56 12.16,-38.64l72.53 41.87 -19.77 34.26zm-970.91 -560.56l-180.15 -104.01 19.79 -34.26 187.75 108.4c-9.5,9.61 -18.63,19.57 -27.39,29.87z"/>
   <path class="fil0" d="M1806.84 888.73l-97.61 -31.72c1.49,-13.4 2.48,-26.95 2.97,-40.62l106.86 34.72 -12.22 37.62zm-1088.38 -353.64l-175.68 -57.08 12.22 -37.61 184.91 60.08c-7.58,11.23 -14.73,22.78 -21.45,34.61z"/>
   <path class="fil0" d="M1839.78 753.7l-130.31 -13.7 -0.02 -0.14c-0.25,-2.27 -0.51,-4.54 -0.78,-6.81 -0.28,-2.29 -0.57,-4.57 -0.87,-6.85 -0.27,-1.97 -0.54,-3.93 -0.83,-5.89l-0.09 -0.64c-0.33,-2.3 -0.69,-4.6 -1.06,-6.9 -0.3,-1.86 -0.61,-3.73 -0.92,-5.59 -0.44,-2.53 -0.89,-5.06 -1.36,-7.59l140.36 14.76 -4.12 39.35zm-1164 -122.34l-157.84 -16.58 4.13 -39.36 167.95 17.65c-0.94,2.26 -1.87,4.52 -2.78,6.8 -0.74,1.84 -1.47,3.69 -2.19,5.55 -0.78,2.02 -1.55,4.05 -2.3,6.08 -0.87,2.31 -1.71,4.63 -2.54,6.96 -0.55,1.51 -1.08,3.02 -1.6,4.54 -0.97,2.78 -1.91,5.57 -2.83,8.36z"/>
   <path class="fil0" d="M522.07 753.7l-4.13 -39.35 140.37 -14.76c-2.48,13.31 -4.46,26.79 -5.93,40.41l-130.31 13.7zm1149.75 -160.63l167.96 -17.65 4.12 39.36 -157.84 16.58c-4.27,-12.98 -9.01,-25.76 -14.24,-38.29z"/>
   <path class="fil0" d="M555 888.73l-12.22 -37.62 106.87 -34.72c0.48,13.67 1.47,27.22 2.97,40.62l-97.62 31.72zm1066.94 -388.25l184.9 -60.08 12.22 37.61 -175.68 57.08c-6.72,-11.83 -13.86,-23.38 -21.44,-34.61z"/>
   <path class="fil0" d="M615.29 1013.97l-19.79 -34.26 72.55 -41.88c3.57,13.09 7.63,25.98 12.16,38.65l-64.92 37.49zm943.52 -590.43l187.75 -108.4 19.77 34.26 -180.14 104.01c-8.76,-10.3 -17.88,-20.26 -27.38,-29.87z"/>
   <path class="fil0" d="M700.3 1123.93l-26.48 -29.39 42.59 -38.35c6.56,11.74 13.54,23.21 20.94,34.38l-37.05 33.36zm786.45 -761.36l174.8 -157.39 26.48 29.41 -169.25 152.38c-10.35,-8.53 -21.05,-16.66 -32.03,-24.4z"/>
   <path class="fil0" d="M806.31 1213.83l-32.02 -23.27 20.28 -27.91c9.17,9.7 18.68,19.06 28.55,28.04l-16.81 23.14zm602.61 -896.74l146.62 -201.79 32 23.25 -143.17 197.06c-11.55,-6.61 -23.38,-12.78 -35.45,-18.52z"/>
   <path class="fil0" d="M928.69 1279.71l-36.15 -16.1 6.76 -15.18c11.22,7.03 22.72,13.64 34.48,19.83l-5.09 11.45zm398.96 -993.36l105.5 -236.94 36.14 16.1 -103.84 233.23c-12.39,-4.58 -24.99,-8.72 -37.8,-12.39z"/>
   <path class="fil0" d="M1062.1 1318.69l-38.7 -8.21 1.02 -4.8c12.57,3.87 25.33,7.28 38.27,10.22l-0.59 2.79zm182.53 -1049.05l55.1 -259.22 38.7 8.22 -54.66 257.17c-12.89,-2.53 -25.94,-4.59 -39.14,-6.17z"/>
  </g>
  <g id="_2494483477664">
   <path class="fil1" d="M1171.39 1328.99l0 -600.8 5.61 -26.4 0 389.05c1.31,0.01 2.61,0.05 3.92,0.05 1.31,0 2.61,-0.04 3.91,-0.05l0 -389.09 5.61 26.41 0 600.83c-3.17,0.05 -6.34,0.12 -9.52,0.12 -3.19,0 -6.36,-0.07 -9.53,-0.12zm0 -728.06l0 -334.98 5.61 -0.1 0 361.48 -5.61 -26.4zm13.44 -335.08l5.61 0.1 0 335.01 -5.61 26.4 0 -361.51z"/>
   <path class="fil1" d="M1309.12 1313.51l-124.29 -584.77 0 -26.98 80.92 380.68c2.56,-0.52 5.1,-1.08 7.64,-1.64l-80.91 -380.63 10.99 24.68 124.09 583.77c-6.1,1.75 -12.25,3.36 -18.44,4.89zm-150.74 -709.2l-70.23 -330.4c1.84,-0.32 3.69,-0.63 5.54,-0.93l75.67 355.99 -10.98 -24.66zm-56.95 -332.54c1.85,-0.27 3.71,-0.54 5.57,-0.8l70 329.35 0 27.01 -75.57 -355.56z"/>
   <path class="fil1" d="M1437.11 1263.39l-239.02 -536.83 -5.61 -26.39 158.29 355.5c2.4,-1.04 4.79,-2.09 7.16,-3.17l-158.29 -355.52 15.85 21.81 238.22 535.06c-5.47,3.27 -11,6.46 -16.6,9.54zm-290.79 -653.13l-140.24 -314.98c1.77,-0.61 3.55,-1.22 5.32,-1.82l150.77 338.63 -15.85 -21.83zm-127.44 -319.27c1.79,-0.57 3.58,-1.14 5.39,-1.69l139.48 313.27 5.61 26.4 -150.48 -337.98z"/>
   <path class="fil1" d="M1546.29 1183.64l-335.69 -462.04 -10.97 -24.63 228.72 314.79c2.12,-1.51 4.22,-3.06 6.32,-4.61l-228.68 -314.75 20.04 18.04 334 459.71c-4.51,4.57 -9.07,9.08 -13.74,13.49zm-410.45 -564.93l-209.35 -288.15c1.65,-0.9 3.31,-1.79 4.98,-2.68l224.41 308.86 -20.04 -18.03zm-197.34 -294.49c1.68,-0.86 3.37,-1.71 5.06,-2.55l207.66 285.81 10.95 24.61 -223.67 -307.87z"/>
   <path class="fil1" d="M1630.15 1081.87l-408.29 -367.62 -15.87 -21.85 289.1 260.31c1.76,-1.92 3.51,-3.86 5.24,-5.82l-289.1 -260.3 23.41 13.51 405.59 365.21c-3.26,5.58 -6.62,11.1 -10.08,16.56zm-502.92 -452.83l-276.08 -248.58c5.07,-4.01 10.22,-7.92 15.43,-11.75l273.43 246.19 15.87 21.85 -289.13 -260.34c-1.77,1.92 -3.51,3.86 -5.23,5.82l289.09 260.31 -23.38 -13.5z"/>
   <path class="fil1" d="M1685.08 966.63l-453.84 -262.02 -20 -18.02 336.94 194.54c1.33,-2.25 2.65,-4.51 3.94,-6.78l-336.95 -194.54 25.63 8.33 450.11 259.86c-1.84,6.25 -3.77,12.47 -5.83,18.63zm-563.99 -325.63l-338.6 -195.48c4.31,-4.87 8.68,-9.68 13.16,-14.39l334.93 193.37 20.03 18.04 -336.95 -194.54c-1.33,2.25 -2.65,4.51 -3.93,6.78l336.95 194.54 -25.59 -8.32z"/>
   <path class="fil1" d="M1710.29 846.57l-471.78 -153.29 -23.34 -13.47 370.08 120.24c0.83,-2.47 1.63,-4.96 2.41,-7.45l-370.12 -120.26 26.84 2.83 467.36 151.85c-0.37,6.55 -0.86,13.07 -1.45,19.55zm-592.85 -192.62l-393.7 -127.92c3.35,-5.62 6.78,-11.19 10.32,-16.68l389.24 126.47 23.38 13.5 -370.08 -120.24c-0.83,2.47 -1.64,4.96 -2.43,7.45l370.06 120.23 -26.79 -2.81z"/>
   <path class="fil1" d="M1708.27 729.56l-465.07 -48.88 -25.66 -8.34 386.95 40.67c0.29,-2.58 0.57,-5.19 0.82,-7.78l-386.91 -40.67 26.85 -2.82 460.13 48.36c1.07,6.46 2.06,12.93 2.89,19.46zm-591.65 -62.18l-437.45 -45.98c2.17,-6.2 4.43,-12.36 6.82,-18.44l432.57 45.46 25.68 8.34 -386.88 -40.66c-0.3,2.59 -0.57,5.19 -0.82,7.8l386.91 40.66 -26.83 2.82z"/>
   <path class="fil1" d="M656.46 710.1l460.15 -48.36 26.83 2.82 -386.9 40.67c0.25,2.59 0.53,5.2 0.82,7.78l386.94 -40.66 -25.65 8.33 -465.07 48.88c0.83,-6.52 1.82,-13.01 2.88,-19.46zm586.81 -61.68l432.58 -45.46c2.4,6.08 4.65,12.25 6.82,18.44l-437.46 45.98 -26.82 -2.82 386.92 -40.66c-0.25,-2.61 -0.53,-5.21 -0.82,-7.8l-386.88 40.66 25.66 -8.34z"/>
   <path class="fil1" d="M650.11 827.02l467.35 -151.85 26.84 -2.82 -370.13 120.25c0.79,2.49 1.6,4.98 2.43,7.45l370.04 -120.23 -23.34 13.48 -471.74 153.27c-0.6,-6.48 -1.09,-13 -1.45,-19.55zm588.4 -191.19l389.27 -126.48c3.54,5.49 6.98,11.06 10.32,16.68l-393.69 127.92 -26.8 2.81 370.06 -120.24c-0.79,-2.49 -1.59,-4.97 -2.42,-7.44l-370.11 120.25 23.37 -13.5z"/>
   <path class="fil1" d="M670.93 948.01l450.11 -259.87 25.6 -8.32 -336.91 194.52c1.28,2.27 2.6,4.54 3.93,6.78l336.95 -194.54 -20.02 18.03 -453.82 262.01c-2.06,-6.15 -4,-12.36 -5.84,-18.61zm560.33 -323.5l334.93 -193.38c4.48,4.71 8.86,9.52 13.16,14.39l-338.59 195.48 -25.63 8.33 336.98 -194.56c-1.29,-2.27 -2.6,-4.53 -3.93,-6.77l-336.94 194.52 20.02 -18.01z"/>
   <path class="fil1" d="M721.61 1065.3l405.64 -365.23 23.36 -13.49 -289.09 260.31c1.72,1.96 3.46,3.9 5.23,5.82l289.09 -260.3 -15.88 21.86 -408.26 367.61c-3.46,-5.46 -6.83,-10.99 -10.09,-16.58zm500.21 -450.38l273.45 -246.21c5.2,3.83 10.36,7.74 15.42,11.75l-276.05 248.56 -23.39 13.5 289.08 -260.29c-1.73,-1.95 -3.48,-3.9 -5.24,-5.82l-289.12 260.33 15.85 -21.82z"/>
   <path class="fil1" d="M801.82 1170.15l334.03 -459.74 19.99 -18 -228.67 314.74c2.09,1.55 4.2,3.1 6.32,4.61l228.68 -314.74 -10.96 24.63 -335.66 461.99c-4.66,-4.41 -9.23,-8.91 -13.73,-13.49zm408.78 -562.62l207.69 -285.86c1.69,0.84 3.37,1.7 5.05,2.56l-223.69 307.88 10.95 -24.58zm219.77 -279.65c1.67,0.89 3.33,1.78 4.98,2.68l-209.33 288.13 -20.05 18.05 224.4 -308.86z"/>
   <path class="fil1" d="M908.12 1253.85l238.22 -535.04 15.84 -21.8 -158.28 355.48c2.38,1.09 4.76,2.14 7.16,3.18l158.3 -355.52 -5.62 26.41 -239.01 536.83c-5.6,-3.08 -11.14,-6.26 -16.61,-9.54zm289.97 -651.26l139.49 -313.29c1.79,0.56 3.58,1.12 5.37,1.69l-150.46 337.94 5.6 -26.34zm152.34 -309.13c1.78,0.6 3.56,1.21 5.33,1.82l-140.24 314.99 -15.87 21.84 150.78 -338.65z"/>
   <path class="fil1" d="M1034.29 1308.62l124.09 -583.81 10.98 -24.66 -80.91 380.65c2.54,0.57 5.08,1.11 7.64,1.64l80.91 -380.67 0 27 -124.29 584.74c-6.18,-1.53 -12.33,-3.15 -18.42,-4.89zm150.54 -708.24l70.01 -329.41c1.86,0.26 3.72,0.52 5.57,0.8l-75.58 355.58 0 -26.97zm7.66 28.56l75.66 -355.97c1.85,0.3 3.7,0.62 5.54,0.94l-70.22 330.35 -10.98 24.68z"/>
  </g>
  <path class="fil0" d="M208.72 1899.62l-83.29 0 0 -333.95 -125.43 0 0 -83.59 333.95 0 0 83.59 -125.23 0 0 333.95zm253.04 0l-83.49 0 0 -417.54 83.49 0 0 167.07 166.88 0 0 -167.07 83.58 0 0 417.54 -83.58 0 0 -166.88 -166.88 0 0 166.88zm614.23 0l-286.25 0 0 -417.54 286.25 0 0 83.59 -202.76 0 0 83.48 137.16 0 0 83.59 -137.16 0 0 83.29 202.76 0 0 83.59zm308.9 0l-83.49 0 0 -417.54 83.49 0 0 167.07 166.87 0 0 -167.07 83.59 0 0 417.54 -83.59 0 0 -166.88 -166.87 0 0 166.88zm657.26 -166.88c0,23.16 -4.37,44.83 -13.12,65.1 -8.75,20.28 -20.67,37.97 -35.78,52.98 -15.11,15.1 -32.9,26.93 -53.17,35.68 -20.28,8.74 -41.95,13.12 -65.01,13.12 -23.15,0 -44.82,-4.38 -65.1,-13.12 -20.27,-8.75 -37.96,-20.58 -52.97,-35.68 -15.1,-15.01 -26.93,-32.7 -35.68,-52.98 -8.75,-20.27 -13.12,-41.94 -13.12,-65.1l0 -250.66 83.29 0 0 250.66c0,11.43 2.19,22.26 6.56,32.3 4.37,10.14 10.33,18.99 17.89,26.54 7.55,7.55 16.4,13.52 26.64,17.89 10.13,4.37 20.97,6.56 32.49,6.56 11.44,0 22.27,-2.19 32.41,-6.56 10.23,-4.37 19.08,-10.34 26.63,-17.89 7.56,-7.55 13.52,-16.4 17.89,-26.54 4.38,-10.04 6.56,-20.87 6.56,-32.3l0 -250.66 83.59 0 0 250.66zm406.5 41.65c0,17.29 -3.28,33.49 -9.94,48.7 -6.56,15.1 -15.5,28.32 -26.93,39.65 -11.33,11.43 -24.55,20.38 -39.66,26.94 -15.2,6.66 -31.41,9.94 -48.7,9.94l-208.72 0 0 -417.54 208.72 0c17.29,0 33.5,3.28 48.7,9.84 15.11,6.66 28.33,15.61 39.66,26.94 11.43,11.43 20.37,24.65 26.93,39.75 6.66,15.21 9.94,31.41 9.94,48.7 0,7.76 -1.09,15.71 -3.18,23.85 -2.19,8.16 -5.17,16.01 -9.04,23.56 -3.88,7.55 -8.55,14.51 -14.02,20.67 -5.37,6.27 -11.43,11.33 -17.99,15.41 6.76,3.68 12.92,8.75 18.29,15.01 5.47,6.36 10.14,13.32 14.01,20.87 3.88,7.55 6.86,15.4 8.85,23.65 2.09,8.25 3.08,16.3 3.08,24.06zm-250.46 41.64l125.23 0c5.86,0 11.33,-1.09 16.3,-3.18 5.07,-2.19 9.54,-5.07 13.32,-8.85 3.77,-3.77 6.66,-8.25 8.84,-13.31 2.09,-4.97 3.19,-10.44 3.19,-16.3 0,-5.77 -1.1,-11.23 -3.19,-16.31 -2.18,-5.06 -5.07,-9.44 -8.84,-13.21 -3.78,-3.78 -8.25,-6.76 -13.32,-8.85 -4.97,-2.19 -10.44,-3.28 -16.3,-3.28l-125.23 0 0 83.29zm0 -166.88l125.23 0c5.86,0 11.33,-0.99 16.3,-3.18 5.07,-2.08 9.54,-5.06 13.32,-8.84 3.77,-3.78 6.66,-8.25 8.84,-13.42 2.09,-5.17 3.19,-10.63 3.19,-16.4 0,-5.86 -1.1,-11.33 -3.19,-16.4 -2.18,-4.97 -5.07,-9.44 -8.84,-13.22 -3.78,-3.77 -8.25,-6.75 -13.32,-8.84 -4.97,-2.19 -10.44,-3.18 -16.3,-3.18l-125.23 0 0 83.48z"/>
  <path class="fil2" d="M817.45 1935.71l791.76 0c12.68,0 23.05,10.37 23.05,23.04l0 172.92c0,12.67 -10.37,23.04 -23.05,23.04l-791.76 0c-12.68,0 -23.05,-10.37 -23.05,-23.04l0 -172.92c0,-12.67 10.37,-23.04 23.05,-23.04z"/>
  <path class="fil1" d="M895.59 2020.63c-3.46,-1.51 -6.92,-2.26 -10.38,-2.26 -7.07,0 -13.16,2.56 -18.27,7.67 -5.12,5.11 -7.67,11.21 -7.67,18.27l0 72.42 -15.34 0 0 -72.42c0,-8.12 2.14,-15.52 6.43,-22.22 4.28,-6.69 9.88,-11.69 16.8,-15l0.45 -0.22c5.57,-2.56 11.43,-3.84 17.6,-3.84 9.62,0 18.2,2.93 25.72,8.8l-15.34 8.8zm49.63 48.05c1.8,9.62 6.54,17.63 14.21,24.02 7.67,6.39 16.47,9.59 26.39,9.59 7.37,0 14.14,-1.73 20.31,-5.19 6.16,-3.46 11.13,-8.19 14.89,-14.21l13.31 7.67c-5.12,8.27 -11.96,14.89 -20.53,19.85 -8.57,4.97 -17.9,7.45 -27.98,7.45 -10.22,0 -19.7,-2.56 -28.42,-7.67 -8.72,-5.12 -15.64,-12.03 -20.75,-20.76 -5.12,-8.72 -7.67,-18.2 -7.67,-28.42 0,-10.38 2.55,-19.89 7.67,-28.54 5.11,-8.65 12.03,-15.53 20.75,-20.64 8.72,-5.12 18.2,-7.67 28.42,-7.67 10.23,0 19.7,2.55 28.43,7.67 8.72,5.11 15.64,11.99 20.75,20.64 5.12,8.65 7.67,18.16 7.67,28.54 0,1.8 -0.15,4.36 -0.45,7.67l-97 0zm40.6 -49.18c-6.61,0 -13.08,1.54 -19.4,4.62 -6.31,3.09 -11.43,7.3 -15.34,12.64 -3.91,5.33 -5.86,11.09 -5.86,17.25l81.21 0c0,-6.16 -1.95,-11.92 -5.87,-17.25 -3.91,-5.34 -8.98,-9.55 -15.22,-12.64 -6.25,-3.08 -12.75,-4.62 -19.52,-4.62zm186.57 -12.63l0 109.86 -15.57 0 0 -20.76c-10.37,14.59 -24.21,21.89 -41.51,21.89 -10.37,0 -19.92,-2.52 -28.65,-7.56 -8.72,-5.04 -15.6,-11.92 -20.64,-20.64 -5.04,-8.73 -7.55,-18.2 -7.55,-28.43 0,-10.37 2.51,-19.92 7.55,-28.65 5.04,-8.72 11.92,-15.6 20.64,-20.64 8.73,-5.04 18.28,-7.56 28.65,-7.56 10.68,0 19.44,2.22 26.28,6.66 6.85,4.44 11.92,9.21 15.23,14.32l0 -18.49 15.57 0zm-57.08 95.65c7.52,0 14.44,-1.85 20.76,-5.53 6.31,-3.69 11.32,-8.69 15,-15 3.68,-6.32 5.53,-13.24 5.53,-20.76 0,-7.52 -1.85,-14.47 -5.53,-20.86 -3.68,-6.4 -8.69,-11.43 -15,-15.12 -6.32,-3.68 -13.24,-5.53 -20.76,-5.53 -7.52,0 -14.47,1.85 -20.86,5.53 -6.4,3.69 -11.43,8.72 -15.12,15.12 -3.68,6.39 -5.53,13.34 -5.53,20.86 0,7.52 1.85,14.44 5.53,20.76 3.69,6.31 8.72,11.31 15.12,15 6.39,3.68 13.34,5.53 20.86,5.53zm94.98 -135.81l0 150.02 -15.35 0 0 -150.02 15.35 0zm73.31 52.56l-18.72 0 0 97.46 -15.57 0 0 -97.46 -18.72 0 0 -15.34 18.72 0 0 -37.22 15.57 0 0 37.22 18.72 0 0 15.34zm68.36 98.59c-10.23,0 -19.74,-2.56 -28.54,-7.67 -8.8,-5.12 -15.75,-12.07 -20.87,-20.87 -5.11,-8.8 -7.67,-18.31 -7.67,-28.54 0,-10.38 2.56,-19.96 7.67,-28.76 5.12,-8.8 12.07,-15.79 20.87,-20.98 8.8,-5.19 18.31,-7.78 28.54,-7.78 10.37,0 19.96,2.59 28.76,7.78 8.8,5.19 15.79,12.18 20.98,20.98 5.19,8.8 7.78,18.38 7.78,28.76 0,10.23 -2.59,19.74 -7.78,28.54 -5.19,8.8 -12.18,15.75 -20.98,20.87 -8.8,5.11 -18.39,7.67 -28.76,7.67zm0 -15.12c7.67,0 14.7,-1.88 21.09,-5.64 6.39,-3.76 11.47,-8.87 15.23,-15.34 3.76,-6.47 5.64,-13.46 5.64,-20.98 0,-7.67 -1.88,-14.74 -5.64,-21.2 -3.76,-6.47 -8.84,-11.59 -15.23,-15.34 -6.39,-3.76 -13.42,-5.64 -21.09,-5.64 -7.52,0 -14.48,1.88 -20.87,5.64 -6.39,3.75 -11.47,8.87 -15.23,15.34 -3.76,6.46 -5.64,13.53 -5.64,21.2 0,7.52 1.88,14.51 5.64,20.98 3.76,6.47 8.84,11.58 15.23,15.34 6.39,3.76 13.35,5.64 20.87,5.64zm129.49 -82.11c-3.46,-1.51 -6.92,-2.26 -10.38,-2.26 -7.07,0 -13.16,2.56 -18.27,7.67 -5.12,5.11 -7.67,11.21 -7.67,18.27l0 72.42 -15.35 0 0 -72.42c0,-8.12 2.15,-15.52 6.43,-22.22 4.29,-6.69 9.89,-11.69 16.81,-15l0.45 -0.22c5.57,-2.56 11.43,-3.84 17.6,-3.84 9.62,0 18.2,2.93 25.71,8.8l-15.33 8.8zm37.89 65.87c1.21,4.21 3.09,7.52 5.64,9.92 4.21,3.92 10.38,5.87 18.5,5.87 7.07,0 12.79,-1.65 17.15,-4.96 4.36,-3.31 6.54,-7.6 6.54,-12.86 0,-4.97 -0.98,-8.65 -2.93,-11.05 -1.96,-2.41 -4.48,-3.95 -7.56,-4.63 -3.08,-0.68 -7.33,-1.09 -12.75,-1.24 -7.82,-0.45 -14.21,-1.32 -19.17,-2.59 -4.97,-1.28 -9.48,-4.18 -13.54,-8.69 -4.96,-6.17 -7.44,-12.93 -7.44,-20.3 0,-1.81 0.07,-3.16 0.22,-4.06 1.21,-9.48 5.19,-16.74 11.96,-21.77 6.77,-5.04 15.87,-7.56 27.3,-7.56l0.22 0c8.42,0 15.27,1.58 20.53,4.74 5.27,3.16 9.33,6.99 12.18,11.5 3.01,4.96 4.89,10.15 5.64,15.57l-15.79 0c-0.3,-2.11 -1.28,-4.59 -2.93,-7.45 -3.76,-5.71 -10.3,-8.72 -19.63,-9.02 -9.47,0 -15.71,1.58 -18.72,4.74 -3.01,3.15 -4.81,6.84 -5.42,11.05 -0.15,0.6 -0.22,1.43 -0.22,2.48 0,3.61 1.28,6.84 3.83,9.7 2.11,2.56 4.82,4.25 8.12,5.08 3.31,0.83 8.05,1.47 14.22,1.92 4.96,0.3 9.21,0.75 12.74,1.35 3.54,0.6 6.88,1.73 10.04,3.38 9.78,5.27 14.66,14.21 14.66,26.85 0,4.36 -0.86,8.53 -2.59,12.52 -1.73,3.98 -4.17,7.48 -7.33,10.49 -7.07,6.92 -16.77,10.38 -29.1,10.38 -12.03,0 -21.81,-3.39 -29.33,-10.16 -5.86,-5.71 -9.47,-12.78 -10.83,-21.2l15.79 0z"/>
 </g>
</svg>
