<?xml version="1.0" encoding="UTF-8"?>
<!DOCTYPE svg PUBLIC "-//W3C//DTD SVG 1.1//EN" "http://www.w3.org/Graphics/SVG/1.1/DTD/svg11.dtd">
<!-- Creator: CorelDRAW -->
<svg xmlns="http://www.w3.org/2000/svg" xml:space="preserve" width="1255px" height="345px" version="1.1" style="shape-rendering:geometricPrecision; text-rendering:geometricPrecision; image-rendering:optimizeQuality; fill-rule:evenodd; clip-rule:evenodd"
viewBox="0 0 2448.65 672.63"
 xmlns:xlink="http://www.w3.org/1999/xlink"
 xmlns:xodm="http://www.corel.com/coreldraw/odm/2003">
 <defs>
  <style type="text/css">
   <![CDATA[
    .fil1 {fill:#012928}
    .fil0 {fill:#012928;fill-rule:nonzero}
    .fil2 {fill:#01FBA1;fill-rule:nonzero}
   ]]>
  </style>
 </defs>
 <g id="Camada_x0020_1">
  <metadata id="CorelCorpID_0Corel-Layer"/>
  <path class="fil0" d="M208.72 417.53l-83.29 0 0 -333.94 -125.43 0 0 -83.59 333.95 0 0 83.59 -125.23 0 0 333.94zm253.04 0l-83.49 0 0 -417.53 83.49 0 0 167.07 166.88 0 0 -167.07 83.58 0 0 417.53 -83.58 0 0 -166.87 -166.88 0 0 166.87zm614.23 0l-286.25 0 0 -417.53 286.25 0 0 83.59 -202.76 0 0 83.48 137.16 0 0 83.59 -137.16 0 0 83.29 202.76 0 0 83.58zm308.9 0l-83.49 0 0 -417.53 83.49 0 0 167.07 166.87 0 0 -167.07 83.59 0 0 417.53 -83.59 0 0 -166.87 -166.87 0 0 166.87zm657.26 -166.87c0,23.16 -4.37,44.82 -13.12,65.1 -8.75,20.28 -20.67,37.97 -35.78,52.97 -15.11,15.11 -32.9,26.94 -53.17,35.68 -20.28,8.75 -41.95,13.12 -65.01,13.12 -23.15,0 -44.82,-4.37 -65.1,-13.12 -20.27,-8.74 -37.96,-20.57 -52.97,-35.68 -15.1,-15 -26.93,-32.69 -35.68,-52.97 -8.75,-20.28 -13.12,-41.94 -13.12,-65.1l0 -250.66 83.29 0 0 250.66c0,11.43 2.19,22.26 6.56,32.3 4.37,10.14 10.33,18.98 17.89,26.54 7.55,7.55 16.4,13.51 26.64,17.89 10.13,4.37 20.97,6.56 32.49,6.56 11.44,0 22.27,-2.19 32.41,-6.56 10.23,-4.38 19.08,-10.34 26.63,-17.89 7.56,-7.56 13.52,-16.4 17.89,-26.54 4.38,-10.04 6.56,-20.87 6.56,-32.3l0 -250.66 83.59 0 0 250.66zm406.5 41.64c0,17.3 -3.28,33.5 -9.94,48.7 -6.56,15.11 -15.5,28.33 -26.93,39.66 -11.33,11.43 -24.55,20.38 -39.66,26.93 -15.2,6.66 -31.41,9.94 -48.7,9.94l-208.72 0 0 -417.53 208.72 0c17.29,0 33.5,3.28 48.7,9.84 15.11,6.66 28.33,15.6 39.66,26.93 11.43,11.43 20.37,24.65 26.93,39.76 6.66,15.21 9.94,31.41 9.94,48.7 0,7.75 -1.09,15.7 -3.18,23.85 -2.19,8.15 -5.17,16.01 -9.04,23.56 -3.88,7.55 -8.55,14.51 -14.02,20.67 -5.37,6.26 -11.43,11.33 -17.99,15.41 6.76,3.67 12.92,8.74 18.29,15.01 5.47,6.36 10.14,13.31 14.01,20.87 3.88,7.55 6.86,15.4 8.85,23.65 2.09,8.25 3.08,16.3 3.08,24.05zm-250.46 41.65l125.23 0c5.86,0 11.33,-1.1 16.3,-3.18 5.07,-2.19 9.54,-5.07 13.32,-8.85 3.77,-3.78 6.66,-8.25 8.84,-13.32 2.09,-4.96 3.19,-10.43 3.19,-16.3 0,-5.76 -1.1,-11.23 -3.19,-16.3 -2.18,-5.06 -5.07,-9.44 -8.84,-13.21 -3.78,-3.78 -8.25,-6.76 -13.32,-8.85 -4.97,-2.19 -10.44,-3.28 -16.3,-3.28l-125.23 0 0 83.29zm0 -166.88l125.23 0c5.86,0 11.33,-0.99 16.3,-3.18 5.07,-2.08 9.54,-5.07 13.32,-8.84 3.77,-3.78 6.66,-8.25 8.84,-13.42 2.09,-5.17 3.19,-10.64 3.19,-16.4 0,-5.86 -1.1,-11.33 -3.19,-16.4 -2.18,-4.97 -5.07,-9.44 -8.84,-13.22 -3.78,-3.77 -8.25,-6.75 -13.32,-8.84 -4.97,-2.19 -10.44,-3.18 -16.3,-3.18l-125.23 0 0 83.48z"/>
  <path class="fil1" d="M817.45 453.62l791.76 0c12.68,0 23.05,10.37 23.05,23.05l0 172.91c0,12.68 -10.37,23.05 -23.05,23.05l-791.76 0c-12.68,0 -23.05,-10.37 -23.05,-23.05l0 -172.91c0,-12.68 10.37,-23.05 23.05,-23.05z"/>
  <path class="fil2" d="M895.59 538.55c-3.46,-1.51 -6.92,-2.26 -10.38,-2.26 -7.07,0 -13.16,2.56 -18.27,7.67 -5.12,5.11 -7.67,11.2 -7.67,18.27l0 72.42 -15.34 0 0 -72.42c0,-8.12 2.14,-15.53 6.43,-22.22 4.28,-6.69 9.88,-11.69 16.8,-15l0.45 -0.23c5.57,-2.55 11.43,-3.83 17.6,-3.83 9.62,0 18.2,2.93 25.72,8.8l-15.34 8.8zm49.63 48.05c1.8,9.62 6.54,17.63 14.21,24.02 7.67,6.39 16.47,9.59 26.39,9.59 7.37,0 14.14,-1.73 20.31,-5.19 6.16,-3.46 11.13,-8.2 14.89,-14.21l13.31 7.67c-5.12,8.27 -11.96,14.89 -20.53,19.85 -8.57,4.96 -17.9,7.44 -27.98,7.44 -10.22,0 -19.7,-2.55 -28.42,-7.67 -8.72,-5.11 -15.64,-12.03 -20.75,-20.75 -5.12,-8.72 -7.67,-18.2 -7.67,-28.42 0,-10.38 2.55,-19.89 7.67,-28.54 5.11,-8.65 12.03,-15.53 20.75,-20.64 8.72,-5.12 18.2,-7.67 28.42,-7.67 10.23,0 19.7,2.55 28.43,7.67 8.72,5.11 15.64,11.99 20.75,20.64 5.12,8.65 7.67,18.16 7.67,28.54 0,1.8 -0.15,4.36 -0.45,7.67l-97 0zm40.6 -49.18c-6.61,0 -13.08,1.54 -19.4,4.62 -6.31,3.09 -11.43,7.3 -15.34,12.64 -3.91,5.33 -5.86,11.09 -5.86,17.25l81.21 0c0,-6.16 -1.95,-11.92 -5.87,-17.25 -3.91,-5.34 -8.98,-9.55 -15.22,-12.64 -6.25,-3.08 -12.75,-4.62 -19.52,-4.62zm186.57 -12.64l0 109.87 -15.57 0 0 -20.76c-10.37,14.59 -24.21,21.88 -41.51,21.88 -10.37,0 -19.92,-2.52 -28.65,-7.55 -8.72,-5.04 -15.6,-11.92 -20.64,-20.65 -5.04,-8.72 -7.55,-18.19 -7.55,-28.42 0,-10.38 2.51,-19.93 7.55,-28.65 5.04,-8.72 11.92,-15.6 20.64,-20.64 8.73,-5.04 18.28,-7.56 28.65,-7.56 10.68,0 19.44,2.22 26.28,6.66 6.85,4.43 11.92,9.21 15.23,14.32l0 -18.5 15.57 0zm-57.08 95.65c7.52,0 14.44,-1.84 20.76,-5.52 6.31,-3.69 11.32,-8.69 15,-15.01 3.68,-6.31 5.53,-13.23 5.53,-20.75 0,-7.52 -1.85,-14.48 -5.53,-20.87 -3.68,-6.39 -8.69,-11.43 -15,-15.11 -6.32,-3.68 -13.24,-5.53 -20.76,-5.53 -7.52,0 -14.47,1.85 -20.86,5.53 -6.4,3.68 -11.43,8.72 -15.12,15.11 -3.68,6.39 -5.53,13.35 -5.53,20.87 0,7.52 1.85,14.44 5.53,20.75 3.69,6.32 8.72,11.32 15.12,15.01 6.39,3.68 13.34,5.52 20.86,5.52zm94.98 -135.8l0 150.02 -15.35 0 0 -150.02 15.35 0zm73.31 52.56l-18.72 0 0 97.46 -15.57 0 0 -97.46 -18.72 0 0 -15.34 18.72 0 0 -37.22 15.57 0 0 37.22 18.72 0 0 15.34zm68.36 98.58c-10.23,0 -19.74,-2.55 -28.54,-7.67 -8.8,-5.11 -15.75,-12.07 -20.87,-20.86 -5.11,-8.8 -7.67,-18.31 -7.67,-28.54 0,-10.38 2.56,-19.96 7.67,-28.76 5.12,-8.8 12.07,-15.79 20.87,-20.98 8.8,-5.19 18.31,-7.79 28.54,-7.79 10.37,0 19.96,2.6 28.76,7.79 8.8,5.19 15.79,12.18 20.98,20.98 5.19,8.8 7.78,18.38 7.78,28.76 0,10.23 -2.59,19.74 -7.78,28.54 -5.19,8.79 -12.18,15.75 -20.98,20.86 -8.8,5.12 -18.39,7.67 -28.76,7.67zm0 -15.11c7.67,0 14.7,-1.88 21.09,-5.64 6.39,-3.76 11.47,-8.87 15.23,-15.34 3.76,-6.47 5.64,-13.46 5.64,-20.98 0,-7.67 -1.88,-14.74 -5.64,-21.21 -3.76,-6.46 -8.84,-11.58 -15.23,-15.34 -6.39,-3.76 -13.42,-5.63 -21.09,-5.63 -7.52,0 -14.48,1.87 -20.87,5.63 -6.39,3.76 -11.47,8.88 -15.23,15.34 -3.76,6.47 -5.64,13.54 -5.64,21.21 0,7.52 1.88,14.51 5.64,20.98 3.76,6.47 8.84,11.58 15.23,15.34 6.39,3.76 13.35,5.64 20.87,5.64zm129.49 -82.11c-3.46,-1.51 -6.92,-2.26 -10.38,-2.26 -7.07,0 -13.16,2.56 -18.27,7.67 -5.12,5.11 -7.67,11.2 -7.67,18.27l0 72.42 -15.35 0 0 -72.42c0,-8.12 2.15,-15.53 6.43,-22.22 4.29,-6.69 9.89,-11.69 16.81,-15l0.45 -0.23c5.57,-2.55 11.43,-3.83 17.6,-3.83 9.62,0 18.2,2.93 25.71,8.8l-15.33 8.8zm37.89 65.87c1.21,4.21 3.09,7.52 5.64,9.92 4.21,3.91 10.38,5.87 18.5,5.87 7.07,0 12.79,-1.66 17.15,-4.96 4.36,-3.31 6.54,-7.6 6.54,-12.86 0,-4.97 -0.98,-8.65 -2.93,-11.06 -1.96,-2.4 -4.48,-3.95 -7.56,-4.62 -3.08,-0.68 -7.33,-1.09 -12.75,-1.24 -7.82,-0.45 -14.21,-1.32 -19.17,-2.6 -4.97,-1.27 -9.48,-4.17 -13.54,-8.68 -4.96,-6.17 -7.44,-12.94 -7.44,-20.31 0,-1.8 0.07,-3.15 0.22,-4.06 1.21,-9.47 5.19,-16.73 11.96,-21.76 6.77,-5.04 15.87,-7.56 27.3,-7.56l0.22 0c8.42,0 15.27,1.58 20.53,4.73 5.27,3.16 9.33,7 12.18,11.51 3.01,4.96 4.89,10.15 5.64,15.57l-15.79 0c-0.3,-2.11 -1.28,-4.59 -2.93,-7.45 -3.76,-5.71 -10.3,-8.72 -19.63,-9.02 -9.47,0 -15.71,1.58 -18.72,4.74 -3.01,3.15 -4.81,6.84 -5.42,11.05 -0.15,0.6 -0.22,1.43 -0.22,2.48 0,3.61 1.28,6.84 3.83,9.7 2.11,2.56 4.82,4.25 8.12,5.08 3.31,0.82 8.05,1.46 14.22,1.92 4.96,0.29 9.21,0.75 12.74,1.35 3.54,0.6 6.88,1.73 10.04,3.38 9.78,5.26 14.66,14.21 14.66,26.85 0,4.36 -0.86,8.53 -2.59,12.52 -1.73,3.98 -4.17,7.48 -7.33,10.49 -7.07,6.91 -16.77,10.37 -29.1,10.37 -12.03,0 -21.81,-3.38 -29.33,-10.15 -5.86,-5.71 -9.47,-12.78 -10.83,-21.2l15.79 0z"/>
 </g>
</svg>
