<?xml version="1.0" encoding="UTF-8"?>
<!DOCTYPE svg PUBLIC "-//W3C//DTD SVG 1.1//EN" "http://www.w3.org/Graphics/SVG/1.1/DTD/svg11.dtd">
<!-- Creator: CorelDRAW -->
<svg xmlns="http://www.w3.org/2000/svg" xml:space="preserve" width="300px" height="264px" version="1.1" style="shape-rendering:geometricPrecision; text-rendering:geometricPrecision; image-rendering:optimizeQuality; fill-rule:evenodd; clip-rule:evenodd"
viewBox="0 0 585.34 515.07"
 xmlns:xlink="http://www.w3.org/1999/xlink"
 xmlns:xodm="http://www.corel.com/coreldraw/odm/2003">
 <defs>
  <style type="text/css">
   <![CDATA[
    .fil2 {fill:#012928}
    .fil0 {fill:#012928;fill-rule:nonzero}
    .fil1 {fill:#01FBA1;fill-rule:nonzero}
   ]]>
  </style>
 </defs>
 <g id="Camada_x0020_1">
  <metadata id="CorelCorpID_0Corel-Layer"/>
  <g id="_2360850418528">
   <path class="fil0" d="M287.02 317.72l-4.73 0c1.59,0 3.16,-0.04 4.73,-0.1l0 0.1zm-4.73 0l-4.73 0 0 -0.1c1.57,0.06 3.15,0.1 4.73,0.1zm-4.73 -254.08l0 -63.64 9.46 0 0 63.64c-1.57,-0.06 -3.14,-0.1 -4.73,-0.1 -1.58,0 -3.16,0.04 -4.73,0.1z"/>
   <path class="fil0" d="M310.69 315.23l-0.14 -0.67c3.1,-0.7 6.15,-1.52 9.15,-2.44l0.24 1.14 -9.25 1.97zm-52.98 -249.3l-13.07 -61.47 9.25 -1.97 13.17 61.97c-3.16,0.37 -6.27,0.87 -9.35,1.47z"/>
   <path class="fil0" d="M342.58 305.91l-1.21 -2.74c2.81,-1.48 5.56,-3.06 8.24,-4.74l1.62 3.63 -8.65 3.85zm-104.4 -234.5l-24.82 -55.75 8.64 -3.85 25.21 56.64c-3.06,0.88 -6.07,1.87 -9.03,2.96z"/>
   <path class="fil0" d="M371.84 290.16l-4.02 -5.53c2.36,-2.15 4.63,-4.39 6.83,-6.7l4.84 6.67 -7.65 5.56zm-152.53 -209.94l-34.22 -47.1 7.65 -5.56 35.05 48.24c-2.89,1.37 -5.71,2.85 -8.48,4.42z"/>
   <path class="fil0" d="M397.18 268.67l-8.85 -7.98c1.76,-2.67 3.43,-5.41 5,-8.21l10.18 9.16 -6.33 7.03zm-195.65 -176.17l-40.46 -36.42 6.33 -7.03 41.79 37.62c-2.63,1.85 -5.19,3.79 -7.66,5.83z"/>
   <path class="fil0" d="M417.5 242.38l-15.51 -8.96c1.08,-3.03 2.05,-6.11 2.9,-9.24l17.34 10.01 -4.73 8.19zm-232.08 -133.99l-43.07 -24.87 4.73 -8.19 44.88 25.92c-2.27,2.29 -4.45,4.67 -6.54,7.14z"/>
   <path class="fil0" d="M431.91 212.44l-23.33 -7.58c0.36,-3.2 0.59,-6.44 0.71,-9.71l25.55 8.3 -2.93 8.99zm-260.17 -84.53l-41.99 -13.65 2.92 -8.99 44.2 14.37c-1.81,2.68 -3.52,5.44 -5.13,8.27z"/>
   <path class="fil0" d="M439.79 180.17l-31.15 -3.28 -0.01 -0.03c-0.06,-0.54 -0.12,-1.09 -0.18,-1.63 -0.07,-0.55 -0.14,-1.09 -0.21,-1.64 -0.06,-0.47 -0.13,-0.94 -0.2,-1.41l-0.02 -0.15c-0.08,-0.55 -0.17,-1.1 -0.25,-1.65 -0.08,-0.44 -0.15,-0.89 -0.23,-1.33 -0.1,-0.61 -0.21,-1.21 -0.32,-1.82l33.55 3.53 -0.98 9.41zm-278.25 -29.25l-37.73 -3.96 0.99 -9.41 40.14 4.22c-0.22,0.54 -0.44,1.08 -0.66,1.62 -0.18,0.45 -0.35,0.89 -0.52,1.33 -0.19,0.49 -0.37,0.97 -0.55,1.46 -0.21,0.55 -0.41,1.1 -0.61,1.66 -0.13,0.36 -0.26,0.72 -0.38,1.08 -0.23,0.67 -0.46,1.34 -0.68,2z"/>
   <path class="fil0" d="M124.8 180.17l-0.99 -9.41 33.55 -3.53c-0.59,3.18 -1.06,6.41 -1.41,9.66l-31.15 3.28zm274.84 -38.4l40.15 -4.22 0.98 9.41 -37.73 3.96c-1.02,-3.1 -2.15,-6.16 -3.4,-9.15z"/>
   <path class="fil0" d="M132.67 212.44l-2.92 -8.99 25.54 -8.3c0.12,3.27 0.36,6.51 0.71,9.71l-23.33 7.58zm255.04 -92.8l44.2 -14.37 2.93 8.99 -42 13.65c-1.61,-2.83 -3.31,-5.59 -5.13,-8.27z"/>
   <path class="fil0" d="M147.08 242.38l-4.73 -8.19 17.34 -10.01c0.86,3.13 1.83,6.21 2.91,9.24l-15.52 8.96zm225.54 -141.13l44.88 -25.92 4.73 8.19 -43.06 24.86c-2.09,-2.46 -4.28,-4.84 -6.55,-7.13z"/>
   <path class="fil0" d="M167.4 268.67l-6.33 -7.03 10.18 -9.16c1.57,2.8 3.24,5.54 5.01,8.21l-8.86 7.98zm188 -182l41.78 -37.62 6.33 7.03 -40.46 36.42c-2.47,-2.04 -5.03,-3.98 -7.65,-5.83z"/>
   <path class="fil0" d="M192.74 290.16l-7.65 -5.56 4.85 -6.68c2.19,2.32 4.46,4.56 6.82,6.71l-4.02 5.53zm144.05 -214.36l35.05 -48.24 7.65 5.56 -34.22 47.1c-2.76,-1.57 -5.59,-3.05 -8.48,-4.42z"/>
   <path class="fil0" d="M222 305.91l-8.64 -3.85 1.61 -3.63c2.68,1.68 5.43,3.26 8.25,4.74l-1.22 2.74zm95.37 -237.46l25.21 -56.64 8.65 3.85 -24.83 55.75c-2.96,-1.09 -5.97,-2.08 -9.03,-2.96z"/>
   <path class="fil0" d="M253.89 315.23l-9.25 -1.97 0.24 -1.14c3.01,0.92 6.06,1.73 9.15,2.44l-0.14 0.67zm43.63 -250.77l13.17 -61.97 9.25 1.97 -13.06 61.47c-3.08,-0.6 -6.2,-1.1 -9.36,-1.47z"/>
  </g>
  <g id="_2360850421456">
   <path class="fil1" d="M280.01 317.69l0 -143.62 1.34 -6.31 0 93c0.32,0 0.63,0.01 0.94,0.01 0.31,0 0.62,-0.01 0.94,-0.01l0 -93.01 1.34 6.31 0 143.63c-0.76,0.01 -1.52,0.03 -2.28,0.03 -0.76,0 -1.52,-0.02 -2.28,-0.03zm0 -174.04l0 -80.08 1.34 -0.02 0 86.41 -1.34 -6.31zm3.22 -80.1l1.34 0.02 0 80.09 -1.34 6.31 0 -86.42z"/>
   <path class="fil1" d="M312.94 313.99l-29.71 -139.79 0 -6.45 19.34 91c0.61,-0.12 1.22,-0.26 1.83,-0.39l-19.34 -90.99 2.62 5.9 29.66 139.55c-1.45,0.41 -2.92,0.8 -4.4,1.17zm-36.04 -169.53l-16.78 -78.98c0.44,-0.08 0.88,-0.15 1.32,-0.23l18.09 85.1 -2.63 -5.89zm-13.61 -79.5c0.44,-0.06 0.89,-0.12 1.33,-0.19l16.73 78.73 0 6.46 -18.06 -85z"/>
   <path class="fil1" d="M343.53 302.01l-57.13 -128.33 -1.34 -6.31 37.83 84.98c0.58,-0.25 1.15,-0.5 1.71,-0.76l-37.83 -84.98 3.78 5.21 56.95 127.9c-1.31,0.79 -2.63,1.55 -3.97,2.29zm-69.51 -156.13l-33.52 -75.29c0.42,-0.15 0.85,-0.3 1.27,-0.44l36.04 80.95 -3.79 -5.22zm-30.46 -76.32c0.42,-0.14 0.85,-0.27 1.28,-0.41l33.35 74.89 1.34 6.31 -35.97 -80.79z"/>
   <path class="fil1" d="M369.63 282.94l-80.24 -110.45 -2.62 -5.88 54.67 75.25c0.51,-0.37 1.01,-0.74 1.51,-1.11l-54.66 -75.24 4.78 4.32 79.84 109.89c-1.07,1.09 -2.16,2.17 -3.28,3.22zm-98.11 -135.04l-50.05 -68.88c0.4,-0.22 0.79,-0.43 1.19,-0.64l53.64 73.83 -4.78 -4.31zm-47.18 -70.4c0.4,-0.2 0.81,-0.41 1.21,-0.61l49.64 68.32 2.62 5.89 -53.47 -73.6z"/>
   <path class="fil1" d="M389.68 258.61l-97.6 -87.87 -3.8 -5.23 69.11 62.23c0.42,-0.46 0.84,-0.92 1.25,-1.39l-69.1 -62.23 5.59 3.23 96.96 87.31c-0.78,1.33 -1.59,2.65 -2.41,3.95zm-120.22 -108.24l-66 -59.42c1.21,-0.96 2.44,-1.9 3.69,-2.81l65.36 58.85 3.79 5.22 -69.11 -62.23c-0.42,0.46 -0.84,0.92 -1.25,1.39l69.11 62.23 -5.59 -3.23z"/>
   <path class="fil1" d="M402.81 231.07l-108.49 -62.64 -4.78 -4.3 80.54 46.5c0.32,-0.54 0.64,-1.08 0.94,-1.62l-80.54 -46.51 6.13 2 107.59 62.11c-0.44,1.5 -0.9,2.98 -1.39,4.46zm-134.82 -77.84l-80.94 -46.73c1.03,-1.17 2.08,-2.32 3.15,-3.44l80.06 46.22 4.79 4.32 -80.55 -46.51c-0.32,0.54 -0.63,1.08 -0.94,1.62l80.55 46.51 -6.12 -1.99z"/>
   <path class="fil1" d="M408.83 202.37l-112.77 -36.64 -5.58 -3.23 88.46 28.75c0.2,-0.59 0.39,-1.19 0.58,-1.78l-88.47 -28.75 6.41 0.67 111.72 36.3c-0.09,1.57 -0.2,3.13 -0.35,4.68zm-141.71 -46.05l-94.11 -30.58c0.8,-1.34 1.62,-2.67 2.46,-3.98l93.05 30.23 5.59 3.23 -88.47 -28.75c-0.2,0.59 -0.39,1.19 -0.58,1.78l88.46 28.75 -6.4 -0.68z"/>
   <path class="fil1" d="M408.35 174.4l-111.17 -11.69 -6.13 -1.99 92.49 9.72c0.07,-0.62 0.14,-1.24 0.2,-1.86l-92.49 -9.72 6.42 -0.68 109.99 11.57c0.26,1.54 0.49,3.09 0.69,4.65zm-141.43 -14.87l-104.57 -10.99c0.52,-1.48 1.06,-2.95 1.63,-4.41l103.4 10.87 6.14 2 -92.48 -9.73c-0.07,0.62 -0.13,1.25 -0.19,1.87l92.48 9.72 -6.41 0.67z"/>
   <path class="fil1" d="M156.92 169.75l110 -11.57 6.41 0.68 -92.48 9.72c0.06,0.62 0.12,1.24 0.19,1.86l92.5 -9.72 -6.13 1.99 -111.18 11.69c0.2,-1.56 0.44,-3.11 0.69,-4.65zm140.28 -14.75l103.4 -10.87c0.57,1.46 1.11,2.93 1.63,4.41l-104.57 10.99 -6.41 -0.67 92.49 -9.72c-0.06,-0.62 -0.13,-1.25 -0.2,-1.87l-92.48 9.73 6.14 -2z"/>
   <path class="fil1" d="M155.4 197.69l111.72 -36.3 6.42 -0.67 -88.48 28.75c0.19,0.59 0.38,1.19 0.58,1.78l88.46 -28.74 -5.58 3.22 -112.77 36.64c-0.14,-1.55 -0.26,-3.11 -0.35,-4.68zm140.66 -45.7l93.05 -30.23c0.85,1.31 1.67,2.64 2.47,3.98l-94.11 30.58 -6.41 0.68 88.46 -28.75c-0.19,-0.59 -0.38,-1.19 -0.58,-1.78l-88.47 28.75 5.59 -3.23z"/>
   <path class="fil1" d="M160.38 226.62l107.6 -62.12 6.12 -1.99 -80.54 46.49c0.31,0.55 0.62,1.09 0.94,1.63l80.55 -46.51 -4.79 4.31 -108.48 62.63c-0.5,-1.47 -0.96,-2.95 -1.4,-4.44zm133.94 -77.34l80.07 -46.22c1.07,1.12 2.12,2.28 3.14,3.44l-80.93 46.73 -6.13 1.99 80.55 -46.51c-0.3,-0.54 -0.62,-1.08 -0.94,-1.62l-80.54 46.5 4.78 -4.31z"/>
   <path class="fil1" d="M172.5 254.65l96.96 -87.3 5.59 -3.23 -69.11 62.23c0.41,0.47 0.83,0.93 1.25,1.39l69.11 -62.22 -3.8 5.22 -97.59 87.88c-0.83,-1.31 -1.63,-2.63 -2.41,-3.97zm119.57 -107.66l65.36 -58.85c1.25,0.91 2.48,1.85 3.69,2.81l-65.99 59.41 -5.59 3.23 69.1 -62.22c-0.41,-0.47 -0.83,-0.93 -1.25,-1.39l-69.11 62.23 3.79 -5.22z"/>
   <path class="fil1" d="M191.67 279.72l79.85 -109.9 4.78 -4.3 -54.67 75.23c0.5,0.37 1.01,0.74 1.52,1.11l54.66 -75.24 -2.62 5.89 -80.24 110.43c-1.11,-1.05 -2.2,-2.13 -3.28,-3.22zm97.72 -134.49l49.64 -68.34c0.41,0.21 0.81,0.41 1.21,0.61l-53.47 73.6 2.62 -5.87zm52.53 -66.85c0.4,0.21 0.8,0.42 1.19,0.64l-50.04 68.87 -4.79 4.32 53.64 -73.83z"/>
   <path class="fil1" d="M217.08 299.72l56.95 -127.89 3.78 -5.21 -37.83 84.97c0.56,0.26 1.13,0.51 1.71,0.76l37.84 -84.98 -1.34 6.31 -57.14 128.33c-1.34,-0.74 -2.66,-1.5 -3.97,-2.29zm69.32 -155.68l33.34 -74.88c0.43,0.13 0.86,0.26 1.28,0.4l-35.96 80.78 1.34 -6.3zm36.41 -73.89c0.43,0.14 0.85,0.29 1.28,0.44l-33.53 75.29 -3.79 5.22 36.04 -80.95z"/>
   <path class="fil1" d="M247.24 312.82l29.66 -139.56 2.63 -5.89 -19.34 90.99c0.6,0.13 1.21,0.26 1.82,0.39l19.34 -91 0 6.46 -29.71 139.78c-1.47,-0.37 -2.94,-0.76 -4.4,-1.17zm35.99 -169.3l16.73 -78.75c0.45,0.07 0.89,0.13 1.33,0.19l-18.06 85.01 0 -6.45zm1.83 6.82l18.08 -85.09c0.45,0.07 0.89,0.15 1.33,0.23l-16.79 78.96 -2.62 5.9z"/>
  </g>
  <path class="fil0" d="M49.89 454.09l-19.91 0 0 -79.83 -29.98 0 0 -19.98 79.83 0 0 19.98 -29.94 0 0 79.83zm60.49 0l-19.96 0 0 -99.81 19.96 0 0 39.94 39.89 0 0 -39.94 19.98 0 0 99.81 -19.98 0 0 -39.89 -39.89 0 0 39.89zm146.83 0l-68.43 0 0 -99.81 68.43 0 0 19.98 -48.47 0 0 19.96 32.79 0 0 19.98 -32.79 0 0 19.91 48.47 0 0 19.98zm73.84 0l-19.96 0 0 -99.81 19.96 0 0 39.94 39.89 0 0 -39.94 19.98 0 0 99.81 -19.98 0 0 -39.89 -39.89 0 0 39.89zm157.11 -39.89c0,5.54 -1.04,10.72 -3.13,15.56 -2.09,4.85 -4.94,9.08 -8.56,12.67 -3.61,3.61 -7.86,6.43 -12.71,8.53 -4.84,2.09 -10.02,3.13 -15.53,3.13 -5.54,0 -10.72,-1.04 -15.57,-3.13 -4.84,-2.1 -9.07,-4.92 -12.66,-8.53 -3.61,-3.59 -6.44,-7.82 -8.53,-12.67 -2.09,-4.84 -3.13,-10.02 -3.13,-15.56l0 -59.92 19.9 0 0 59.92c0,2.73 0.53,5.32 1.57,7.72 1.05,2.43 2.47,4.54 4.28,6.35 1.8,1.8 3.92,3.23 6.37,4.27 2.42,1.05 5.01,1.57 7.77,1.57 2.73,0 5.32,-0.52 7.74,-1.57 2.45,-1.04 4.56,-2.47 6.37,-4.27 1.8,-1.81 3.23,-3.92 4.27,-6.35 1.05,-2.4 1.57,-4.99 1.57,-7.72l0 -59.92 19.98 0 0 59.92zm97.18 9.96c0,4.13 -0.79,8 -2.38,11.64 -1.57,3.61 -3.71,6.77 -6.44,9.48 -2.71,2.73 -5.87,4.87 -9.48,6.44 -3.63,1.59 -7.51,2.37 -11.64,2.37l-49.89 0 0 -99.81 49.89 0c4.13,0 8.01,0.79 11.64,2.35 3.61,1.6 6.77,3.73 9.48,6.44 2.73,2.74 4.87,5.9 6.44,9.51 1.59,3.63 2.38,7.5 2.38,11.64 0,1.85 -0.27,3.75 -0.77,5.7 -0.52,1.95 -1.23,3.83 -2.16,5.63 -0.92,1.81 -2.04,3.47 -3.35,4.94 -1.28,1.5 -2.73,2.71 -4.3,3.69 1.62,0.87 3.09,2.09 4.37,3.58 1.31,1.52 2.43,3.19 3.35,4.99 0.93,1.81 1.64,3.68 2.12,5.66 0.5,1.97 0.74,3.89 0.74,5.75zm-59.88 9.95l29.94 0c1.4,0 2.71,-0.26 3.9,-0.76 1.21,-0.52 2.28,-1.21 3.18,-2.11 0.9,-0.91 1.59,-1.98 2.11,-3.19 0.5,-1.19 0.76,-2.49 0.76,-3.89 0,-1.38 -0.26,-2.69 -0.76,-3.9 -0.52,-1.21 -1.21,-2.26 -2.11,-3.16 -0.9,-0.9 -1.97,-1.62 -3.18,-2.11 -1.19,-0.53 -2.5,-0.79 -3.9,-0.79l-29.94 0 0 19.91zm0 -39.89l29.94 0c1.4,0 2.71,-0.24 3.9,-0.76 1.21,-0.5 2.28,-1.21 3.18,-2.11 0.9,-0.91 1.59,-1.98 2.11,-3.21 0.5,-1.24 0.76,-2.54 0.76,-3.92 0,-1.4 -0.26,-2.71 -0.76,-3.92 -0.52,-1.19 -1.21,-2.26 -2.11,-3.16 -0.9,-0.9 -1.97,-1.62 -3.18,-2.12 -1.19,-0.52 -2.5,-0.76 -3.9,-0.76l-29.94 0 0 19.96z"/>
  <path class="fil2" d="M195.41 462.72l189.26 0c3.03,0 5.51,2.48 5.51,5.51l0 41.33c0,3.03 -2.48,5.51 -5.51,5.51l-189.26 0c-3.03,0 -5.51,-2.48 -5.51,-5.51l0 -41.33c0,-3.03 2.48,-5.51 5.51,-5.51z"/>
  <path class="fil1" d="M214.08 483.02c-0.82,-0.36 -1.65,-0.54 -2.48,-0.54 -1.69,0 -3.14,0.61 -4.36,1.83 -1.23,1.22 -1.84,2.68 -1.84,4.37l0 17.31 -3.66 0 0 -17.31c0,-1.94 0.51,-3.71 1.53,-5.31 1.03,-1.6 2.37,-2.8 4.02,-3.59l0.11 -0.05c1.33,-0.61 2.73,-0.92 4.2,-0.92 2.3,0 4.35,0.7 6.15,2.11l-3.67 2.1zm11.87 11.48c0.43,2.31 1.56,4.22 3.4,5.75 1.83,1.53 3.93,2.29 6.3,2.29 1.77,0 3.38,-0.41 4.86,-1.24 1.47,-0.83 2.66,-1.96 3.56,-3.4l3.18 1.84c-1.22,1.97 -2.86,3.55 -4.91,4.74 -2.05,1.19 -4.28,1.78 -6.69,1.78 -2.44,0 -4.7,-0.61 -6.79,-1.83 -2.09,-1.23 -3.74,-2.88 -4.96,-4.96 -1.22,-2.09 -1.83,-4.35 -1.83,-6.8 0,-2.48 0.61,-4.75 1.83,-6.82 1.22,-2.07 2.87,-3.71 4.96,-4.93 2.09,-1.23 4.35,-1.84 6.79,-1.84 2.45,0 4.71,0.61 6.8,1.84 2.08,1.22 3.74,2.86 4.96,4.93 1.22,2.07 1.83,4.34 1.83,6.82 0,0.43 -0.03,1.04 -0.1,1.83l-23.19 0zm9.7 -11.75c-1.58,0 -3.12,0.37 -4.63,1.1 -1.51,0.74 -2.74,1.75 -3.67,3.02 -0.93,1.28 -1.4,2.66 -1.4,4.13l19.41 0c0,-1.47 -0.47,-2.85 -1.4,-4.13 -0.94,-1.27 -2.15,-2.28 -3.64,-3.02 -1.49,-0.73 -3.05,-1.1 -4.67,-1.1zm44.6 -3.02l0 26.26 -3.72 0 0 -4.96c-2.48,3.49 -5.79,5.23 -9.92,5.23 -2.48,0 -4.76,-0.6 -6.85,-1.81 -2.08,-1.2 -3.73,-2.85 -4.93,-4.93 -1.21,-2.09 -1.81,-4.35 -1.81,-6.79 0,-2.49 0.6,-4.77 1.81,-6.85 1.2,-2.09 2.85,-3.73 4.93,-4.94 2.09,-1.2 4.37,-1.8 6.85,-1.8 2.55,0 4.65,0.53 6.28,1.59 1.64,1.06 2.85,2.2 3.64,3.42l0 -4.42 3.72 0zm-13.64 22.86c1.8,0 3.45,-0.44 4.96,-1.32 1.51,-0.88 2.71,-2.07 3.59,-3.58 0.88,-1.51 1.32,-3.17 1.32,-4.96 0,-1.8 -0.44,-3.47 -1.32,-4.99 -0.88,-1.53 -2.08,-2.74 -3.59,-3.62 -1.51,-0.88 -3.16,-1.32 -4.96,-1.32 -1.8,0 -3.46,0.44 -4.99,1.32 -1.53,0.88 -2.73,2.09 -3.61,3.62 -0.88,1.52 -1.32,3.19 -1.32,4.99 0,1.79 0.44,3.45 1.32,4.96 0.88,1.51 2.08,2.7 3.61,3.58 1.53,0.88 3.19,1.32 4.99,1.32zm22.7 -32.46l0 35.86 -3.67 0 0 -35.86 3.67 0zm17.53 12.56l-4.48 0 0 23.3 -3.72 0 0 -23.3 -4.48 0 0 -3.66 4.48 0 0 -8.9 3.72 0 0 8.9 4.48 0 0 3.66zm16.34 23.57c-2.45,0 -4.72,-0.61 -6.83,-1.83 -2.1,-1.23 -3.76,-2.89 -4.98,-4.99 -1.23,-2.1 -1.84,-4.38 -1.84,-6.82 0,-2.48 0.61,-4.78 1.84,-6.88 1.22,-2.1 2.88,-3.77 4.98,-5.01 2.11,-1.24 4.38,-1.86 6.83,-1.86 2.48,0 4.77,0.62 6.87,1.86 2.11,1.24 3.78,2.91 5.02,5.01 1.24,2.1 1.86,4.4 1.86,6.88 0,2.44 -0.62,4.72 -1.86,6.82 -1.24,2.1 -2.91,3.76 -5.02,4.99 -2.1,1.22 -4.39,1.83 -6.87,1.83zm0 -3.61c1.83,0 3.51,-0.45 5.04,-1.35 1.53,-0.9 2.74,-2.12 3.64,-3.67 0.9,-1.54 1.35,-3.22 1.35,-5.01 0,-1.84 -0.45,-3.53 -1.35,-5.07 -0.9,-1.55 -2.11,-2.77 -3.64,-3.67 -1.53,-0.9 -3.21,-1.35 -5.04,-1.35 -1.8,0 -3.46,0.45 -4.99,1.35 -1.53,0.9 -2.74,2.12 -3.64,3.67 -0.9,1.54 -1.35,3.23 -1.35,5.07 0,1.79 0.45,3.47 1.35,5.01 0.9,1.55 2.11,2.77 3.64,3.67 1.53,0.9 3.19,1.35 4.99,1.35zm30.95 -19.63c-0.83,-0.36 -1.65,-0.54 -2.48,-0.54 -1.69,0 -3.15,0.61 -4.37,1.83 -1.22,1.22 -1.83,2.68 -1.83,4.37l0 17.31 -3.67 0 0 -17.31c0,-1.94 0.51,-3.71 1.54,-5.31 1.02,-1.6 2.36,-2.8 4.02,-3.59l0.1 -0.05c1.33,-0.61 2.74,-0.92 4.21,-0.92 2.3,0 4.35,0.7 6.15,2.11l-3.67 2.1zm9.06 15.74c0.29,1.01 0.74,1.8 1.35,2.38 1,0.93 2.48,1.4 4.42,1.4 1.69,0 3.06,-0.4 4.1,-1.19 1.04,-0.79 1.56,-1.81 1.56,-3.07 0,-1.19 -0.23,-2.07 -0.7,-2.64 -0.47,-0.58 -1.07,-0.95 -1.81,-1.11 -0.73,-0.16 -1.75,-0.26 -3.04,-0.3 -1.87,-0.1 -3.4,-0.31 -4.59,-0.62 -1.18,-0.3 -2.26,-0.99 -3.23,-2.07 -1.19,-1.48 -1.78,-3.09 -1.78,-4.85 0,-0.44 0.02,-0.76 0.05,-0.98 0.29,-2.26 1.24,-3.99 2.86,-5.2 1.62,-1.2 3.79,-1.81 6.53,-1.81l0.05 0c2.01,0 3.65,0.38 4.91,1.14 1.26,0.75 2.23,1.67 2.91,2.75 0.72,1.18 1.17,2.42 1.35,3.72l-3.78 0c-0.07,-0.51 -0.3,-1.1 -0.7,-1.78 -0.9,-1.37 -2.46,-2.09 -4.69,-2.16 -2.27,0 -3.76,0.38 -4.48,1.13 -0.71,0.76 -1.15,1.64 -1.29,2.65 -0.04,0.14 -0.05,0.34 -0.05,0.59 0,0.86 0.3,1.63 0.91,2.32 0.51,0.61 1.15,1.01 1.94,1.21 0.8,0.2 1.93,0.35 3.4,0.46 1.19,0.07 2.2,0.18 3.05,0.32 0.84,0.15 1.64,0.42 2.4,0.81 2.33,1.26 3.5,3.4 3.5,6.42 0,1.04 -0.2,2.04 -0.62,2.99 -0.41,0.95 -0.99,1.79 -1.75,2.51 -1.69,1.65 -4.01,2.48 -6.96,2.48 -2.87,0 -5.21,-0.81 -7.01,-2.43 -1.4,-1.36 -2.26,-3.05 -2.58,-5.07l3.77 0z"/>
 </g>
</svg>
