<?xml version="1.0" encoding="UTF-8"?>
<!DOCTYPE svg PUBLIC "-//W3C//DTD SVG 1.1//EN" "http://www.w3.org/Graphics/SVG/1.1/DTD/svg11.dtd">
<!-- Creator: CorelDRAW -->
<svg xmlns="http://www.w3.org/2000/svg" xml:space="preserve" width="680px" height="681px" version="1.1" style="shape-rendering:geometricPrecision; text-rendering:geometricPrecision; image-rendering:optimizeQuality; fill-rule:evenodd; clip-rule:evenodd"
viewBox="0 0 393.59 394.52"
 xmlns:xlink="http://www.w3.org/1999/xlink"
 xmlns:xodm="http://www.corel.com/coreldraw/odm/2003">
 <defs>
  <style type="text/css">
   <![CDATA[
    .fil0 {fill:#012928;fill-rule:nonzero}
    .fil1 {fill:#01FBA1;fill-rule:nonzero}
   ]]>
  </style>
 </defs>
 <g id="Camada_x0020_1">
  <metadata id="CorelCorpID_0Corel-Layer"/>
  <g id="_2494804191440">
   <path class="fil0" d="M202.66 394.52l-5.87 0c1.97,0 3.92,-0.05 5.87,-0.12l0 0.12zm-5.87 0l-5.87 0 0 -0.12c1.95,0.07 3.91,0.12 5.87,0.12zm-5.87 -315.49l0 -79.03 11.74 0 0 79.03c-1.95,-0.08 -3.9,-0.12 -5.87,-0.12 -1.96,0 -3.92,0.04 -5.87,0.12z"/>
   <path class="fil0" d="M232.06 391.43l-0.18 -0.83c3.85,-0.87 7.64,-1.89 11.36,-3.03l0.31 1.42 -11.49 2.44zm-65.8 -309.56l-16.22 -76.34 11.48 -2.44 16.36 76.95c-3.92,0.47 -7.79,1.08 -11.62,1.83z"/>
   <path class="fil0" d="M271.66 379.85l-1.51 -3.39c3.49,-1.84 6.9,-3.8 10.23,-5.89l2.01 4.51 -10.73 4.77zm-129.64 -291.17l-30.83 -69.23 10.73 -4.78 31.32 70.33c-3.8,1.09 -7.54,2.32 -11.22,3.68z"/>
   <path class="fil0" d="M307.99 360.3l-4.99 -6.87c2.93,-2.67 5.75,-5.44 8.47,-8.32l6.02 8.28 -9.5 6.91zm-189.4 -260.68l-42.5 -58.49 9.51 -6.91 43.51 59.9c-3.58,1.71 -7.09,3.54 -10.52,5.5z"/>
   <path class="fil0" d="M339.46 333.62l-11 -9.91c2.2,-3.31 4.27,-6.72 6.21,-10.2l12.65 11.38 -7.86 8.73zm-242.95 -218.76l-50.24 -45.23 7.86 -8.73 51.89 46.72c-3.27,2.3 -6.44,4.71 -9.51,7.24z"/>
   <path class="fil0" d="M364.69 300.98l-19.27 -11.13c1.35,-3.76 2.55,-7.59 3.61,-11.47l21.53 12.43 -5.87 10.17zm-288.19 -166.39l-53.48 -30.88 5.88 -10.17 55.73 32.18c-2.82,2.85 -5.53,5.81 -8.13,8.87z"/>
   <path class="fil0" d="M382.58 263.8l-28.97 -9.41c0.44,-3.98 0.74,-8 0.88,-12.06l31.72 10.3 -3.63 11.17zm-323.06 -104.97l-52.15 -16.94 3.63 -11.17 54.89 17.84c-2.25,3.33 -4.37,6.76 -6.37,10.27z"/>
   <path class="fil0" d="M392.36 223.72l-38.68 -4.07 0 -0.04c-0.08,-0.67 -0.15,-1.35 -0.24,-2.02 -0.08,-0.68 -0.16,-1.35 -0.25,-2.03 -0.08,-0.59 -0.16,-1.17 -0.25,-1.75l-0.03 -0.19c-0.1,-0.68 -0.2,-1.37 -0.31,-2.05 -0.09,-0.55 -0.18,-1.11 -0.28,-1.66 -0.12,-0.75 -0.26,-1.5 -0.4,-2.25l41.67 4.38 -1.23 11.68zm-345.51 -36.31l-46.85 -4.93 1.23 -11.68 49.85 5.24c-0.28,0.67 -0.55,1.34 -0.83,2.02 -0.21,0.55 -0.43,1.1 -0.64,1.65 -0.24,0.6 -0.47,1.2 -0.69,1.8 -0.26,0.69 -0.51,1.38 -0.75,2.07 -0.16,0.44 -0.32,0.89 -0.48,1.34 -0.28,0.83 -0.56,1.66 -0.84,2.49z"/>
   <path class="fil0" d="M1.23 223.72l-1.23 -11.68 41.67 -4.38c-0.74,3.95 -1.33,7.95 -1.76,11.99l-38.68 4.07zm341.28 -47.68l49.85 -5.24 1.23 11.68 -46.86 4.93c-1.26,-3.86 -2.67,-7.65 -4.22,-11.37z"/>
   <path class="fil0" d="M11 263.8l-3.63 -11.17 31.73 -10.3c0.14,4.06 0.43,8.08 0.88,12.06l-28.98 9.41zm316.7 -115.24l54.88 -17.84 3.63 11.17 -52.14 16.94c-2,-3.51 -4.12,-6.94 -6.37,-10.27z"/>
   <path class="fil0" d="M28.9 300.98l-5.88 -10.17 21.54 -12.43c1.06,3.88 2.26,7.71 3.61,11.47l-19.27 11.13zm280.06 -175.26l55.73 -32.18 5.87 10.17 -53.47 30.88c-2.6,-3.06 -5.31,-6.02 -8.13,-8.87z"/>
   <path class="fil0" d="M54.13 333.62l-7.86 -8.73 12.64 -11.38c1.95,3.48 4.02,6.89 6.22,10.2l-11 9.91zm233.44 -226l51.89 -46.72 7.86 8.73 -50.24 45.24c-3.07,-2.54 -6.25,-4.95 -9.51,-7.25z"/>
   <path class="fil0" d="M85.6 360.3l-9.51 -6.91 6.02 -8.28c2.72,2.88 5.55,5.66 8.48,8.32l-4.99 6.87zm178.87 -266.18l43.52 -59.9 9.5 6.91 -42.5 58.49c-3.43,-1.96 -6.94,-3.79 -10.52,-5.5z"/>
   <path class="fil0" d="M121.92 379.85l-10.73 -4.77 2.01 -4.51c3.33,2.09 6.74,4.05 10.24,5.89l-1.52 3.39zm118.43 -294.85l31.31 -70.33 10.73 4.78 -30.82 69.23c-3.68,-1.36 -7.42,-2.59 -11.22,-3.68z"/>
   <path class="fil0" d="M161.52 391.43l-11.48 -2.44 0.3 -1.42c3.73,1.14 7.52,2.15 11.36,3.03l-0.18 0.83zm54.18 -311.39l16.36 -76.95 11.49 2.44 -16.23 76.34c-3.82,-0.75 -7.7,-1.36 -11.62,-1.83z"/>
  </g>
  <g id="_2494804198064">
   <path class="fil1" d="M193.96 394.48l0 -178.33 1.67 -7.84 0 115.48c0.39,0.01 0.77,0.02 1.16,0.02 0.39,0 0.78,-0.01 1.16,-0.02l0 -115.49 1.67 7.84 0 178.34c-0.94,0.02 -1.88,0.04 -2.83,0.04 -0.94,0 -1.88,-0.02 -2.83,-0.04zm0 -216.11l0 -99.43 1.67 -0.03 0 107.3 -1.67 -7.84zm3.99 -99.46l1.67 0.03 0 99.44 -1.67 7.84 0 -107.31z"/>
   <path class="fil1" d="M234.85 389.89l-36.9 -173.58 0 -8.01 24.02 113c0.76,-0.15 1.52,-0.32 2.27,-0.49l-24.01 -112.98 3.26 7.33 36.83 173.28c-1.81,0.52 -3.64,0.99 -5.47,1.45zm-44.75 -210.51l-20.84 -98.08c0.54,-0.09 1.09,-0.18 1.64,-0.27l22.46 105.67 -3.26 -7.32zm-16.9 -98.71c0.55,-0.08 1.1,-0.16 1.65,-0.24l20.78 97.76 0 8.02 -22.43 -105.54z"/>
   <path class="fil1" d="M272.84 375.01l-70.95 -159.35 -1.66 -7.83 46.98 105.52c0.71,-0.3 1.42,-0.62 2.12,-0.94l-46.98 -105.53 4.7 6.48 70.72 158.82c-1.63,0.97 -3.27,1.92 -4.93,2.83zm-86.32 -193.87l-41.63 -93.49c0.53,-0.18 1.06,-0.36 1.59,-0.54l44.75 100.51 -4.71 -6.48zm-37.83 -94.76c0.54,-0.18 1.07,-0.34 1.6,-0.51l41.4 92.99 1.67 7.84 -44.67 -100.32z"/>
   <path class="fil1" d="M305.25 351.34l-99.65 -137.15 -3.25 -7.31 67.89 93.44c0.63,-0.45 1.25,-0.91 1.87,-1.37l-67.87 -93.42 5.94 5.35 99.14 136.45c-1.33,1.36 -2.69,2.7 -4.07,4.01zm-121.84 -167.69l-62.14 -85.53c0.49,-0.27 0.98,-0.53 1.48,-0.79l66.61 91.67 -5.95 -5.35zm-58.58 -87.41c0.5,-0.26 1,-0.51 1.51,-0.76l61.64 84.84 3.25 7.3 -66.4 -91.38z"/>
   <path class="fil1" d="M330.14 321.13l-121.19 -109.12 -4.72 -6.49 85.82 77.27c0.52,-0.57 1.04,-1.14 1.55,-1.72l-85.81 -77.27 6.95 4.01 120.39 108.4c-0.97,1.66 -1.96,3.3 -2.99,4.92zm-149.28 -134.41l-81.95 -73.79c1.5,-1.19 3.03,-2.35 4.58,-3.49l81.16 73.08 4.71 6.49 -85.82 -77.28c-0.53,0.57 -1.04,1.15 -1.56,1.73l85.82 77.26 -6.94 -4z"/>
   <path class="fil1" d="M346.44 286.92l-134.71 -77.77 -5.94 -5.35 100.02 57.74c0.39,-0.66 0.78,-1.33 1.17,-2.01l-100.02 -57.74 7.61 2.47 133.6 77.14c-0.54,1.85 -1.12,3.7 -1.73,5.52zm-167.41 -96.65l-100.5 -58.03c1.28,-1.44 2.57,-2.87 3.9,-4.27l99.42 57.4 5.95 5.35 -100.02 -57.74c-0.4,0.67 -0.79,1.34 -1.17,2.01l100.02 57.75 -7.6 -2.47z"/>
   <path class="fil1" d="M353.92 251.29l-140.03 -45.5 -6.93 -4 109.85 35.69c0.25,-0.73 0.48,-1.47 0.72,-2.21l-109.87 -35.7 7.97 0.84 138.72 45.07c-0.1,1.95 -0.25,3.88 -0.43,5.81zm-175.97 -57.18l-116.86 -37.97c0.99,-1.67 2.01,-3.32 3.06,-4.95l115.54 37.54 6.94 4.01 -109.85 -35.69c-0.25,0.73 -0.49,1.47 -0.72,2.21l109.84 35.69 -7.95 -0.84z"/>
   <path class="fil1" d="M353.32 216.56l-138.04 -14.51 -7.62 -2.48 114.86 12.07c0.09,-0.76 0.17,-1.54 0.24,-2.31l-114.84 -12.07 7.97 -0.84 136.58 14.36c0.32,1.92 0.61,3.84 0.85,5.78zm-175.61 -18.46l-129.85 -13.65c0.64,-1.84 1.31,-3.67 2.02,-5.47l128.4 13.49 7.62 2.48 -114.83 -12.07c-0.09,0.77 -0.17,1.54 -0.25,2.31l114.85 12.07 -7.96 0.84z"/>
   <path class="fil1" d="M41.12 210.78l136.58 -14.36 7.97 0.84 -114.85 12.07c0.08,0.77 0.16,1.55 0.25,2.31l114.85 -12.07 -7.61 2.48 -138.05 14.51c0.25,-1.94 0.54,-3.87 0.86,-5.78zm174.18 -18.31l128.4 -13.49c0.71,1.8 1.38,3.63 2.03,5.47l-129.85 13.65 -7.96 -0.84 114.84 -12.07c-0.07,-0.77 -0.15,-1.54 -0.24,-2.31l-114.84 12.07 7.62 -2.48z"/>
   <path class="fil1" d="M39.23 245.48l138.73 -45.07 7.96 -0.84 -109.86 35.7c0.23,0.74 0.47,1.48 0.72,2.21l109.84 -35.69 -6.93 4 -140.03 45.5c-0.17,-1.93 -0.32,-3.86 -0.43,-5.81zm174.66 -56.75l115.54 -37.54c1.06,1.63 2.08,3.28 3.07,4.95l-116.86 37.97 -7.96 0.84 109.85 -35.69c-0.24,-0.74 -0.47,-1.48 -0.72,-2.21l-109.86 35.69 6.94 -4.01z"/>
   <path class="fil1" d="M45.41 281.4l133.61 -77.14 7.6 -2.47 -100.01 57.74c0.38,0.67 0.77,1.35 1.17,2.01l100.02 -57.74 -5.95 5.35 -134.7 77.77c-0.62,-1.82 -1.19,-3.67 -1.74,-5.52zm166.32 -96.03l99.42 -57.4c1.33,1.4 2.63,2.83 3.91,4.27l-100.5 58.03 -7.61 2.47 100.02 -57.75c-0.38,-0.68 -0.77,-1.35 -1.16,-2.01l-100.02 57.74 5.94 -5.35z"/>
   <path class="fil1" d="M60.46 316.21l120.4 -108.41 6.94 -4 -85.82 77.26c0.52,0.59 1.03,1.16 1.56,1.73l85.81 -77.26 -4.72 6.49 -121.18 109.11c-1.03,-1.62 -2.03,-3.26 -2.99,-4.92zm148.47 -133.68l81.17 -73.09c1.55,1.14 3.07,2.3 4.58,3.49l-81.94 73.78 -6.95 4.01 85.81 -77.26c-0.51,-0.58 -1.03,-1.16 -1.55,-1.73l-85.82 77.27 4.7 -6.47z"/>
   <path class="fil1" d="M84.26 347.33l99.15 -136.46 5.94 -5.34 -67.88 93.42c0.62,0.46 1.25,0.92 1.88,1.37l67.88 -93.42 -3.26 7.31 -99.63 137.13c-1.38,-1.31 -2.74,-2.65 -4.08,-4.01zm121.34 -167l61.65 -84.85c0.5,0.25 1,0.5 1.5,0.76l-66.4 91.39 3.25 -7.3zm65.24 -83c0.49,0.26 0.98,0.52 1.48,0.79l-62.14 85.53 -5.95 5.35 66.61 -91.67z"/>
   <path class="fil1" d="M115.82 372.18l70.71 -158.82 4.7 -6.47 -46.98 105.52c0.7,0.32 1.41,0.64 2.12,0.94l46.99 -105.53 -1.67 7.85 -70.94 159.34c-1.66,-0.91 -3.31,-1.86 -4.93,-2.83zm86.07 -193.31l41.4 -93c0.54,0.17 1.07,0.34 1.6,0.51l-44.66 100.31 1.66 -7.82zm45.22 -91.76c0.53,0.18 1.05,0.36 1.58,0.54l-41.63 93.5 -4.71 6.48 44.76 -100.52z"/>
   <path class="fil1" d="M153.27 388.44l36.83 -173.3 3.26 -7.31 -24.02 112.98c0.76,0.17 1.51,0.33 2.27,0.49l24.02 -112.99 0 8.01 -36.89 173.57c-1.84,-0.46 -3.66,-0.94 -5.47,-1.45zm44.68 -210.23l20.79 -97.78c0.55,0.08 1.1,0.16 1.65,0.24l-22.44 105.55 0 -8.01zm2.28 8.48l22.45 -105.66c0.55,0.09 1.1,0.18 1.65,0.27l-20.84 98.06 -3.26 7.33z"/>
  </g>
 </g>
</svg>
