<?xml version="1.0" encoding="UTF-8"?>
<svg xmlns="http://www.w3.org/2000/svg" viewBox="0 0 1280 640">
<rect width="1280" height="640" fill="#00008B"/>
<g fill="#fff">
<path d="M0,0 v640 h1280 v-640 z"/>
<path d="M0,0 L1280,640 M1280,0 L0,640" stroke="#ff0000" stroke-width="64"/>
</g>
<path d="M640,0 v640 M0,320 h1280" stroke="#ff0000" stroke-width="102"/>
<path d="M640,0 v640 M0,320 h1280" stroke="#fff" stroke-width="68"/>
<g fill="#fff">
<path d="M180,140 l6,18h18l-15,11 6,18-15-11-15,11 6-18-15-11h18z"/>
<path d="M180,440 l6,18h18l-15,11 6,18-15-11-15,11 6-18-15-11h18z"/>
<path d="M340,320 l6,18h18l-15,11 6,18-15-11-15,11 6-18-15-11h18z"/>
<path d="M900,60 l6,18h18l-15,11 6,18-15-11-15,11 6-18-15-11h18z"/>
<path d="M900,540 l6,18h18l-15,11 6,18-15-11-15,11 6-18-15-11h18z"/>
<path d="M1020,320 l6,18h18l-15,11 6,18-15-11-15,11 6-18-15-11h18z"/>
</g>
</svg>
