<?xml version="1.0" encoding="UTF-8"?>
<svg xmlns="http://www.w3.org/2000/svg" viewBox="0 0 810 540">
<rect fill="#003399" width="810" height="540"/>
<g fill="#ffcc00">
<path d="M405,70l8.4,25.9h27.3l-22.1,16l8.4,25.9l-22-16l-22,16l8.4-25.9l-22.1-16h27.3z"/>
<path d="M405,155l8.4,25.9h27.3l-22.1,16l8.4,25.9l-22-16l-22,16l8.4-25.9l-22.1-16h27.3z"/>
<path d="M405,240l8.4,25.9h27.3l-22.1,16l8.4,25.9l-22-16l-22,16l8.4-25.9l-22.1-16h27.3z"/>
<path d="M405,325l8.4,25.9h27.3l-22.1,16l8.4,25.9l-22-16l-22,16l8.4-25.9l-22.1-16h27.3z"/>
<path d="M405,410l8.4,25.9h27.3l-22.1,16l8.4,25.9l-22-16l-22,16l8.4-25.9l-22.1-16h27.3z"/>
<path d="M320,112.5l8.4,25.9h27.3l-22.1,16l8.4,25.9l-22-16l-22,16l8.4-25.9l-22.1-16h27.3z"/>
<path d="M320,197.5l8.4,25.9h27.3l-22.1,16l8.4,25.9l-22-16l-22,16l8.4-25.9l-22.1-16h27.3z"/>
<path d="M320,282.5l8.4,25.9h27.3l-22.1,16l8.4,25.9l-22-16l-22,16l8.4-25.9l-22.1-16h27.3z"/>
<path d="M320,367.5l8.4,25.9h27.3l-22.1,16l8.4,25.9l-22-16l-22,16l8.4-25.9l-22.1-16h27.3z"/>
<path d="M490,112.5l8.4,25.9h27.3l-22.1,16l8.4,25.9l-22-16l-22,16l8.4-25.9l-22.1-16h27.3z"/>
<path d="M490,197.5l8.4,25.9h27.3l-22.1,16l8.4,25.9l-22-16l-22,16l8.4-25.9l-22.1-16h27.3z"/>
<path d="M490,282.5l8.4,25.9h27.3l-22.1,16l8.4,25.9l-22-16l-22,16l8.4-25.9l-22.1-16h27.3z"/>
<path d="M490,367.5l8.4,25.9h27.3l-22.1,16l8.4,25.9l-22-16l-22,16l8.4-25.9l-22.1-16h27.3z"/>
</g>
</svg>
