<?xml version="1.0" encoding="UTF-8"?>
<!DOCTYPE svg PUBLIC "-//W3C//DTD SVG 1.1//EN" "http://www.w3.org/Graphics/SVG/1.1/DTD/svg11.dtd">
<!-- Creator: CorelDRAW -->
<svg xmlns="http://www.w3.org/2000/svg" xml:space="preserve" width="792px" height="202px" version="1.1" style="shape-rendering:geometricPrecision; text-rendering:geometricPrecision; image-rendering:optimizeQuality; fill-rule:evenodd; clip-rule:evenodd"
viewBox="0 0 363.52 92.79"
 xmlns:xlink="http://www.w3.org/1999/xlink"
 xmlns:xodm="http://www.corel.com/coreldraw/odm/2003">
 <defs>
  <style type="text/css">
   <![CDATA[
    .fil3 {fill:#CAFF33}
    .fil2 {fill:#3E3EB5;fill-rule:nonzero}
    .fil0 {fill:#654CF0;fill-rule:nonzero}
    .fil1 {fill:#CAFF33;fill-rule:nonzero}
   ]]>
  </style>
   <mask id="id0">
  <linearGradient id="id1" gradientUnits="userSpaceOnUse" x1="0" y1="39.05" x2="30.87" y2="39.04">
   <stop offset="0" style="stop-opacity:0; stop-color:white"/>
   <stop offset="0.411765" style="stop-opacity:0.501961; stop-color:white"/>
   <stop offset="1" style="stop-opacity:1; stop-color:white"/>
  </linearGradient>
    <rect style="fill:url(#id1)" x="-0.01" y="20.62" width="52.55" height="36.85"/>
   </mask>
 </defs>
 <g id="Camada_x0020_1">
  <metadata id="CorelCorpID_0Corel-Layer"/>
  <path class="fil0" d="M202.76 39.36c0,-6.11 -4.16,-10.06 -9.68,-10.06 -5.46,0 -9.63,3.95 -9.63,10.06 0,6.11 4.17,10.11 9.63,10.11 5.52,0 9.68,-4 9.68,-10.11zm5.24 0c0,8.76 -6.11,14.65 -14.49,14.65 -4.21,0 -7.89,-1.62 -10.22,-4.86l0 4.54 -4.97 0 0 -37.6 5.19 0 0 13.27c2.38,-3.08 5.95,-4.6 10,-4.6 8.38,0 14.49,5.84 14.49,14.6z"/>
  <polygon class="fil0" points="211.8,24.72 216.96,24.72 216.96,53.73 211.8,53.73 "/>
  <path class="fil0" d="M247.31 39.36c0,-6.11 -4.11,-10.06 -9.62,-10.06 -5.52,0 -9.68,3.95 -9.68,10.06 0,6.11 4.16,10.11 9.68,10.11 5.51,0 9.62,-4 9.62,-10.11zm-24.55 0c0,-8.54 6.33,-14.6 14.93,-14.6 8.59,0 14.87,6.06 14.87,14.6 0,8.54 -6.28,14.65 -14.87,14.65 -8.6,0 -14.93,-6.11 -14.93,-14.65z"/>
  <path class="fil0" d="M284.67 37.2l0 16.49 -5.19 0 0 -15.9c0,-5.62 -2.81,-8.38 -7.73,-8.38 -5.52,0 -9.08,3.3 -9.08,9.52l0 14.76 -5.19 0 0 -37.6 5.19 0 0 13c2.16,-2.76 5.73,-4.33 10.11,-4.33 6.97,0 11.89,4 11.89,12.44z"/>
  <path class="fil0" d="M313.82 39.36c0,-6.11 -4.11,-10.06 -9.63,-10.06 -5.51,0 -9.68,3.95 -9.68,10.06 0,6.11 4.17,10.11 9.68,10.11 5.52,0 9.63,-4 9.63,-10.11zm-24.55 0c0,-8.54 6.32,-14.6 14.92,-14.6 8.6,0 14.87,6.06 14.87,14.6 0,8.54 -6.27,14.65 -14.87,14.65 -8.6,0 -14.92,-6.11 -14.92,-14.65z"/>
  <path class="fil1" d="M217.87 19.58c0,-1.93 -1.56,-3.49 -3.49,-3.49 -1.93,0 -3.49,1.56 -3.49,3.49 0,1.93 1.56,3.49 3.49,3.49 1.93,0 3.49,-1.56 3.49,-3.49z"/>
  <path class="fil1" d="M329.93 19.8c0,-1.93 -1.56,-3.49 -3.49,-3.49 -1.93,0 -3.49,1.56 -3.49,3.49 0,1.93 1.56,3.49 3.49,3.49 1.93,0 3.49,-1.56 3.49,-3.49z"/>
  <path class="fil0" d="M324.01 24.55l0 24.6c0,4.02 -3.28,7.3 -7.3,7.3l0 4.86c6.71,0 12.16,-5.46 12.16,-12.16l0 -24.6 -4.86 0z"/>
  <path class="fil0" d="M363.25 42.67l0.09 0.05c0.01,-0.02 0.01,-0.05 0.02,-0.08l-0.11 0.03z"/>
  <path class="fil0" d="M345.96 29.79c4.69,-1.35 9.18,0.6 11.31,5.14l-18.25 5.21c-0.58,-4.98 2.24,-9.01 6.94,-10.35zm5.53 19.39c-4.52,1.29 -8.89,-0.5 -11.12,-4.7l18.04 -5.15 0 0 5.11 -1.46c-0.1,-0.82 -0.26,-1.65 -0.5,-2.5 -2.35,-8.21 -10.04,-12.31 -18.31,-9.95 -8.27,2.36 -12.69,9.92 -10.34,18.13 2.34,8.22 10.1,12.36 18.37,10 3.99,-1.14 7.06,-3.51 8.91,-6.57l-4.3 -2.39c-1.16,2.19 -3.19,3.83 -5.86,4.59z"/>
  <path class="fil2" d="M56.59 56.54c-1.35,1.37 -2.9,2.55 -4.61,3.46 -23.16,12.43 -46.5,-10.91 -34.07,-34.08 1.77,-3.31 4.51,-6.04 7.82,-7.82 11.55,-6.19 23.14,-3.5 30.32,3.63l10.2 -10.23c-15.18,-15.1 -39.72,-15.07 -54.87,0.08 -15.17,15.17 -15.17,39.77 0,54.95l25.41 25.41c1.14,1.14 2.99,1.14 4.13,0l25.41 -25.41c0.05,-0.05 0.09,-0.1 0.14,-0.15l-9.88 -9.84z"/>
  <path class="fil0" d="M56.23 56.18c-4.41,4.49 -10.54,7.28 -17.32,7.28 -13.43,0 -24.32,-10.93 -24.32,-24.41 0,-13.48 10.89,-24.41 24.32,-24.41 6.69,0 12.74,2.71 17.14,7.1l10.32 -10.36c-7.04,-7.03 -16.74,-11.38 -27.46,-11.38 -21.49,0 -38.91,17.48 -38.91,39.05 0,21.57 17.42,39.05 38.91,39.05 10.83,0 20.62,-4.44 27.68,-11.6l-10.36 -10.32z"/>
  <path class="fil3" style="mask:url(#id0)" d="M34.05 33.48c-5.96,-0.93 -11.66,-2.7 -16.94,-5.16l-0.04 -0.01c-4.45,-2.08 -8.67,-4.68 -12.48,-7.68l0 0c-2.96,5.49 -4.59,11.8 -4.59,18.48 0,6.63 1.66,12.88 4.59,18.35 3.79,-2.99 7.94,-5.55 12.36,-7.63 5.32,-2.48 11.08,-4.27 17.1,-5.22l0 4c0,0.75 0.81,1.22 1.46,0.84l0 0 8.27 -4.77 8.26 -4.78c0.65,-0.37 0.65,-1.31 0,-1.68l0 0 -8.26 -4.78 -8.27 -4.77c-0.16,-0.09 -0.32,-0.13 -0.48,-0.13l-0.01 0c-0.51,0 -0.97,0.4 -0.97,0.97l0 0 0 3.97z"/>
  <path class="fil0" d="M58.64 39.36c0,-8.54 6.33,-14.6 15.14,-14.6 5.14,0 9.41,2.11 11.68,6.11l-3.95 2.54c-1.83,-2.81 -4.64,-4.11 -7.78,-4.11 -5.62,0 -9.84,3.95 -9.84,10.06 0,6.22 4.22,10.11 9.84,10.11 3.14,0 5.95,-1.3 7.78,-4.11l3.95 2.49c-2.27,4 -6.54,6.16 -11.68,6.16 -8.81,0 -15.14,-6.11 -15.14,-14.65z"/>
  <path class="fil0" d="M111.6 39.36c0,-6.11 -4.16,-10.06 -9.62,-10.06 -5.52,0 -9.68,3.95 -9.68,10.06 0,6.11 4.16,10.11 9.68,10.11 5.46,0 9.62,-4 9.62,-10.11zm5.14 -14.33l0 28.66 -4.98 0 0 -4.54c-2.32,3.24 -6,4.86 -10.22,4.86 -8.38,0 -14.49,-5.89 -14.49,-14.65 0,-8.76 6.11,-14.6 14.49,-14.6 4.06,0 7.63,1.52 10.01,4.6l0 -4.33 5.19 0z"/>
  <path class="fil0" d="M171.4 37.2l0 16.49 -5.19 0 0 -15.9c0,-5.62 -2.7,-8.38 -7.4,-8.38 -5.19,0 -8.6,3.3 -8.6,9.52l0 14.76 -5.19 0 0 -15.9c0,-5.62 -2.7,-8.38 -7.41,-8.38 -5.19,0 -8.6,3.3 -8.6,9.52l0 14.76 -5.19 0 0 -28.66 4.98 0 0 4.27c2.05,-2.92 5.57,-4.54 9.89,-4.54 4.38,0 8.06,1.73 9.95,5.3 2.17,-3.24 6.17,-5.3 11.03,-5.3 6.98,0 11.73,4 11.73,12.44z"/>
 </g>
</svg>
