<?xml version="1.0" encoding="UTF-8"?>
<!DOCTYPE svg PUBLIC "-//W3C//DTD SVG 1.1//EN" "http://www.w3.org/Graphics/SVG/1.1/DTD/svg11.dtd">
<!-- Creator: CorelDRAW -->
<svg xmlns="http://www.w3.org/2000/svg" xml:space="preserve" width="512px" height="513px" version="1.1" style="shape-rendering:geometricPrecision; text-rendering:geometricPrecision; image-rendering:optimizeQuality; fill-rule:evenodd; clip-rule:evenodd"
viewBox="0 0 296.35 297.05"
 xmlns:xlink="http://www.w3.org/1999/xlink"
 xmlns:xodm="http://www.corel.com/coreldraw/odm/2003">
 <defs>
  <style type="text/css">
   <![CDATA[
    .fil0 {fill:#012928;fill-rule:nonzero}
    .fil1 {fill:#01FBA1;fill-rule:nonzero}
   ]]>
  </style>
 </defs>
 <g id="Camada_x0020_1">
  <metadata id="CorelCorpID_0Corel-Layer"/>
  <g id="_2360137320864">
   <path class="fil0" d="M152.59 297.05l-4.42 0c1.48,0 2.96,-0.04 4.42,-0.09l0 0.09zm-4.42 0l-4.42 0 0 -0.09c1.47,0.05 2.94,0.09 4.42,0.09zm-4.42 -237.55l0 -59.5 8.84 0 0 59.5c-1.46,-0.05 -2.94,-0.09 -4.42,-0.09 -1.48,0 -2.95,0.04 -4.42,0.09z"/>
   <path class="fil0" d="M174.73 294.72l-0.14 -0.62c2.9,-0.66 5.75,-1.42 8.56,-2.29l0.23 1.08 -8.65 1.83zm-49.54 -233.08l-12.22 -57.47 8.65 -1.84 12.31 57.93c-2.95,0.36 -5.86,0.82 -8.74,1.38z"/>
   <path class="fil0" d="M204.54 286.01l-1.13 -2.56c2.62,-1.38 5.2,-2.86 7.7,-4.43l1.51 3.39 -8.08 3.6zm-97.61 -219.24l-23.21 -52.13 8.08 -3.6 23.58 52.96c-2.86,0.82 -5.68,1.74 -8.45,2.77z"/>
   <path class="fil0" d="M231.9 271.28l-3.76 -5.17c2.21,-2 4.33,-4.1 6.38,-6.26l4.53 6.23 -7.15 5.2zm-142.61 -196.27l-32 -44.04 7.16 -5.2 32.77 45.1c-2.7,1.28 -5.35,2.66 -7.93,4.14z"/>
   <path class="fil0" d="M255.59 251.19l-8.28 -7.45c1.65,-2.5 3.21,-5.06 4.68,-7.69l9.52 8.57 -5.92 6.57zm-182.93 -164.7l-37.82 -34.06 5.92 -6.57 39.06 35.17c-2.45,1.73 -4.84,3.55 -7.16,5.46z"/>
   <path class="fil0" d="M274.59 226.62l-14.51 -8.38c1.01,-2.83 1.92,-5.71 2.72,-8.64l16.21 9.36 -4.42 7.66zm-216.99 -125.28l-40.26 -23.25 4.42 -7.66 41.96 24.23c-2.13,2.15 -4.17,4.37 -6.12,6.68z"/>
   <path class="fil0" d="M288.06 198.63l-21.81 -7.09c0.33,-3 0.55,-6.03 0.66,-9.08l23.89 7.76 -2.74 8.41zm-243.24 -79.04l-39.27 -12.76 2.73 -8.4 41.33 13.42c-1.7,2.52 -3.29,5.1 -4.79,7.74z"/>
   <path class="fil0" d="M295.43 168.45l-29.13 -3.06 0 -0.03c-0.06,-0.51 -0.12,-1.02 -0.18,-1.53 -0.06,-0.51 -0.12,-1.02 -0.19,-1.53 -0.06,-0.44 -0.12,-0.88 -0.19,-1.32l-0.02 -0.14c-0.07,-0.51 -0.15,-1.03 -0.23,-1.54 -0.07,-0.42 -0.14,-0.83 -0.21,-1.25 -0.1,-0.56 -0.2,-1.13 -0.3,-1.69l31.37 3.29 -0.92 8.8zm-260.15 -27.34l-35.28 -3.71 0.92 -8.8 37.54 3.95c-0.21,0.5 -0.42,1.01 -0.62,1.52 -0.17,0.41 -0.33,0.82 -0.49,1.24 -0.17,0.45 -0.35,0.9 -0.52,1.36 -0.19,0.51 -0.38,1.03 -0.56,1.55 -0.12,0.34 -0.24,0.68 -0.36,1.02 -0.22,0.62 -0.43,1.24 -0.63,1.87z"/>
   <path class="fil0" d="M0.92 168.45l-0.92 -8.8 31.37 -3.29c-0.55,2.97 -0.99,5.98 -1.32,9.03l-29.13 3.06zm256.97 -35.9l37.54 -3.95 0.92 8.8 -35.28 3.71c-0.95,-2.91 -2.01,-5.76 -3.18,-8.56z"/>
   <path class="fil0" d="M8.28 198.63l-2.73 -8.41 23.89 -7.76c0.1,3.06 0.33,6.08 0.66,9.08l-21.82 7.09zm238.46 -86.78l41.32 -13.42 2.74 8.4 -39.27 12.76c-1.5,-2.64 -3.1,-5.22 -4.79,-7.74z"/>
   <path class="fil0" d="M21.76 226.62l-4.42 -7.66 16.21 -9.36c0.8,2.93 1.7,5.81 2.72,8.64l-14.51 8.38zm210.87 -131.96l41.96 -24.23 4.42 7.66 -40.26 23.24c-1.96,-2.3 -4,-4.52 -6.12,-6.67z"/>
   <path class="fil0" d="M40.76 251.19l-5.92 -6.57 9.52 -8.57c1.46,2.63 3.02,5.19 4.68,7.69l-8.28 7.45zm175.76 -170.16l39.07 -35.17 5.92 6.57 -37.83 34.06c-2.31,-1.91 -4.7,-3.73 -7.16,-5.46z"/>
   <path class="fil0" d="M64.45 271.28l-7.16 -5.2 4.54 -6.23c2.04,2.16 4.17,4.26 6.38,6.26l-3.76 5.17zm134.68 -200.41l32.77 -45.1 7.15 5.2 -32 44.04c-2.58,-1.48 -5.22,-2.86 -7.92,-4.14z"/>
   <path class="fil0" d="M91.8 286.01l-8.08 -3.6 1.51 -3.39c2.51,1.57 5.08,3.05 7.71,4.43l-1.14 2.56zm89.17 -222.01l23.57 -52.96 8.08 3.6 -23.21 52.13c-2.76,-1.03 -5.58,-1.95 -8.44,-2.77z"/>
   <path class="fil0" d="M121.62 294.72l-8.65 -1.83 0.23 -1.08c2.8,0.87 5.66,1.63 8.55,2.29l-0.13 0.62zm40.79 -234.46l12.32 -57.93 8.65 1.84 -12.22 57.47c-2.88,-0.56 -5.8,-1.02 -8.75,-1.38z"/>
  </g>
  <g id="_2360137336800">
   <path class="fil1" d="M146.04 297.02l0 -134.27 1.26 -5.9 0 86.95c0.29,0 0.58,0.01 0.87,0.01 0.3,0 0.59,-0.01 0.88,-0.01l0 -86.96 1.25 5.9 0 134.28c-0.71,0.02 -1.41,0.03 -2.13,0.03 -0.71,0 -1.42,-0.01 -2.13,-0.03zm0 -162.72l0 -74.86 1.26 -0.02 0 80.78 -1.26 -5.9zm3.01 -74.88l1.25 0.02 0 74.87 -1.25 5.9 0 -80.79z"/>
   <path class="fil1" d="M176.83 293.56l-27.78 -130.69 0 -6.03 18.08 85.08c0.57,-0.12 1.14,-0.24 1.71,-0.37l-18.08 -85.07 2.45 5.52 27.74 130.47c-1.37,0.39 -2.74,0.75 -4.12,1.09zm-33.7 -158.5l-15.69 -73.84c0.41,-0.07 0.82,-0.14 1.24,-0.21l16.91 79.56 -2.46 -5.51zm-12.72 -74.32c0.41,-0.06 0.83,-0.12 1.24,-0.18l15.65 73.61 0 6.04 -16.89 -79.47z"/>
   <path class="fil1" d="M205.43 282.36l-53.42 -119.98 -1.25 -5.9 35.37 79.46c0.54,-0.24 1.07,-0.47 1.6,-0.71l-35.37 -79.46 3.54 4.88 53.24 119.58c-1.22,0.73 -2.46,1.44 -3.71,2.13zm-64.99 -145.97l-31.34 -70.4c0.39,-0.13 0.79,-0.27 1.19,-0.4l33.69 75.68 -3.54 -4.88zm-28.48 -71.35c0.4,-0.13 0.8,-0.26 1.2,-0.38l31.17 70.01 1.26 5.9 -33.63 -75.53z"/>
   <path class="fil1" d="M229.83 264.54l-75.02 -103.27 -2.45 -5.5 51.11 70.35c0.48,-0.33 0.95,-0.68 1.42,-1.03l-51.11 -70.34 4.48 4.03 74.64 102.74c-1,1.02 -2.03,2.03 -3.07,3.02zm-91.73 -126.26l-46.79 -64.4c0.37,-0.2 0.74,-0.4 1.11,-0.6l50.16 69.03 -4.48 -4.03zm-44.11 -65.82c0.38,-0.19 0.76,-0.38 1.13,-0.57l46.41 63.88 2.45 5.5 -49.99 -68.81z"/>
   <path class="fil1" d="M248.57 241.79l-91.25 -82.16 -3.54 -4.88 64.61 58.18c0.39,-0.43 0.78,-0.87 1.17,-1.3l-64.61 -58.18 5.23 3.02 90.65 81.62c-0.73,1.25 -1.48,2.48 -2.26,3.7zm-112.4 -101.2l-61.7 -55.56c1.13,-0.9 2.29,-1.77 3.45,-2.63l61.11 55.03 3.55 4.88 -64.62 -58.18c-0.4,0.42 -0.79,0.86 -1.17,1.3l64.61 58.17 -5.23 -3.01z"/>
   <path class="fil1" d="M260.85 216.04l-101.43 -58.56 -4.47 -4.03 75.3 43.48c0.3,-0.5 0.6,-1.01 0.88,-1.52l-75.3 -43.48 5.73 1.87 100.59 58.07c-0.41,1.4 -0.84,2.79 -1.3,4.17zm-126.05 -72.78l-75.67 -43.69c0.96,-1.09 1.94,-2.16 2.94,-3.21l74.85 43.21 4.48 4.03 -75.31 -43.47c-0.29,0.5 -0.59,1 -0.88,1.51l75.31 43.48 -5.72 -1.86z"/>
   <path class="fil1" d="M266.48 189.21l-105.44 -34.26 -5.21 -3.02 82.71 26.88c0.18,-0.55 0.36,-1.11 0.54,-1.67l-82.72 -26.87 6 0.63 104.45 33.93c-0.08,1.47 -0.19,2.93 -0.33,4.38zm-132.49 -43.06l-87.99 -28.58c0.74,-1.26 1.51,-2.51 2.3,-3.73l87 28.26 5.22 3.02 -82.71 -26.87c-0.19,0.55 -0.37,1.1 -0.54,1.66l82.7 26.87 -5.98 -0.63z"/>
   <path class="fil1" d="M266.03 163.05l-103.94 -10.92 -5.73 -1.86 86.48 9.08c0.06,-0.57 0.13,-1.15 0.18,-1.74l-86.47 -9.08 6 -0.63 102.84 10.8c0.24,1.45 0.46,2.89 0.64,4.35zm-132.23 -13.89l-97.77 -10.28c0.49,-1.39 0.99,-2.76 1.53,-4.12l96.68 10.16 5.73 1.86 -86.46 -9.08c-0.07,0.57 -0.13,1.16 -0.18,1.74l86.47 9.09 -6 0.63z"/>
   <path class="fil1" d="M30.96 158.7l102.84 -10.8 6 0.63 -86.47 9.08c0.05,0.59 0.11,1.17 0.18,1.74l86.48 -9.08 -5.73 1.86 -103.94 10.92c0.18,-1.45 0.4,-2.9 0.64,-4.35zm131.15 -13.78l96.68 -10.16c0.53,1.36 1.04,2.74 1.52,4.12l-97.77 10.28 -5.99 -0.63 86.47 -9.09c-0.05,-0.58 -0.12,-1.17 -0.18,-1.75l-86.47 9.09 5.74 -1.86z"/>
   <path class="fil1" d="M29.54 184.83l104.45 -33.93 6 -0.63 -82.72 26.87c0.17,0.56 0.35,1.12 0.54,1.67l82.7 -26.87 -5.21 3.01 -105.44 34.26c-0.13,-1.45 -0.24,-2.91 -0.32,-4.38zm131.51 -42.72l86.99 -28.27c0.8,1.22 1.56,2.47 2.31,3.73l-87.99 28.58 -5.99 0.63 82.71 -26.87c-0.18,-0.56 -0.35,-1.11 -0.54,-1.66l-82.72 26.87 5.23 -3.01z"/>
   <path class="fil1" d="M34.19 211.88l100.6 -58.08 5.72 -1.86 -75.3 43.47c0.29,0.51 0.59,1.02 0.88,1.52l75.31 -43.48 -4.47 4.03 -101.43 58.56c-0.46,-1.38 -0.9,-2.77 -1.31,-4.16zm125.23 -72.31l74.86 -43.21c1,1.05 1.98,2.12 2.94,3.21l-75.67 43.69 -5.73 1.86 75.31 -43.48c-0.28,-0.51 -0.58,-1.01 -0.88,-1.51l-75.3 43.47 4.47 -4.03z"/>
   <path class="fil1" d="M45.52 238.09l90.66 -81.63 5.22 -3.01 -64.61 58.17c0.38,0.44 0.77,0.88 1.17,1.31l64.61 -58.18 -3.55 4.89 -91.25 82.15c-0.77,-1.22 -1.52,-2.45 -2.25,-3.7zm111.79 -100.66l61.12 -55.02c1.16,0.85 2.31,1.72 3.45,2.62l-61.7 55.55 -5.23 3.02 64.61 -58.17c-0.39,-0.44 -0.78,-0.87 -1.17,-1.3l-64.62 58.18 3.54 -4.88z"/>
   <path class="fil1" d="M63.45 261.52l74.65 -102.75 4.47 -4.02 -51.11 70.34c0.47,0.35 0.94,0.7 1.41,1.03l51.11 -70.34 -2.45 5.51 -75.02 103.25c-1.04,-0.99 -2.06,-1.99 -3.06,-3.02zm91.36 -125.74l46.41 -63.89c0.38,0.19 0.76,0.38 1.13,0.57l-49.99 68.81 2.45 -5.49zm49.11 -62.5c0.38,0.2 0.75,0.4 1.12,0.6l-46.79 64.39 -4.48 4.04 50.15 -69.03z"/>
   <path class="fil1" d="M87.2 280.23l53.25 -119.58 3.53 -4.87 -35.37 79.45c0.53,0.24 1.06,0.48 1.6,0.71l35.38 -79.46 -1.26 5.9 -53.41 119.98c-1.25,-0.69 -2.49,-1.4 -3.72,-2.13zm64.81 -145.55l31.18 -70.02c0.4,0.12 0.8,0.25 1.2,0.38l-33.63 75.52 1.25 -5.88zm34.05 -69.09c0.4,0.13 0.79,0.27 1.19,0.4l-31.34 70.4 -3.55 4.88 33.7 -75.68z"/>
   <path class="fil1" d="M115.4 292.47l27.74 -130.48 2.45 -5.51 -18.08 85.07c0.56,0.13 1.13,0.25 1.71,0.37l18.08 -85.08 0 6.04 -27.78 130.68c-1.38,-0.34 -2.76,-0.7 -4.12,-1.09zm33.65 -158.29l15.64 -73.62c0.42,0.06 0.84,0.12 1.25,0.18l-16.89 79.47 0 -6.03zm1.71 6.38l16.91 -79.55c0.41,0.07 0.83,0.14 1.24,0.21l-15.7 73.83 -2.45 5.51z"/>
  </g>
 </g>
</svg>
