<?xml version="1.0" encoding="UTF-8"?>
<!DOCTYPE svg PUBLIC "-//W3C//DTD SVG 1.1//EN" "http://www.w3.org/Graphics/SVG/1.1/DTD/svg11.dtd">
<!-- Creator: CorelDRAW -->
<svg xmlns="http://www.w3.org/2000/svg" xml:space="preserve" width="500px" height="137px" version="1.1" style="shape-rendering:geometricPrecision; text-rendering:geometricPrecision; image-rendering:optimizeQuality; fill-rule:evenodd; clip-rule:evenodd"
viewBox="0 0 975.56 267.98"
 xmlns:xlink="http://www.w3.org/1999/xlink"
 xmlns:xodm="http://www.corel.com/coreldraw/odm/2003">
 <defs>
  <style type="text/css">
   <![CDATA[
    .fil1 {fill:#012928}
    .fil0 {fill:#012928;fill-rule:nonzero}
    .fil2 {fill:#01FBA1;fill-rule:nonzero}
   ]]>
  </style>
 </defs>
 <g id="Camada_x0020_1">
  <metadata id="CorelCorpID_0Corel-Layer"/>
  <path class="fil0" d="M83.15 166.35l-33.18 0 0 -133.05 -49.97 0 0 -33.3 133.05 0 0 33.3 -49.9 0 0 133.05zm100.82 0l-33.26 0 0 -166.35 33.26 0 0 66.56 66.48 0 0 -66.56 33.3 0 0 166.35 -33.3 0 0 -66.49 -66.48 0 0 66.49zm244.71 0l-114.04 0 0 -166.35 114.04 0 0 33.3 -80.78 0 0 33.26 54.65 0 0 33.3 -54.65 0 0 33.19 80.78 0 0 33.3zm123.07 0l-33.26 0 0 -166.35 33.26 0 0 66.56 66.48 0 0 -66.56 33.3 0 0 166.35 -33.3 0 0 -66.49 -66.48 0 0 66.49zm261.86 -66.49c0,9.23 -1.75,17.86 -5.23,25.94 -3.49,8.08 -8.24,15.13 -14.26,21.11 -6.02,6.01 -13.1,10.73 -21.18,14.21 -8.08,3.49 -16.71,5.23 -25.9,5.23 -9.22,0 -17.86,-1.74 -25.93,-5.23 -8.08,-3.48 -15.13,-8.2 -21.11,-14.21 -6.02,-5.98 -10.73,-13.03 -14.22,-21.11 -3.48,-8.08 -5.22,-16.71 -5.22,-25.94l0 -99.86 33.18 0 0 99.86c0,4.56 0.87,8.87 2.61,12.87 1.75,4.04 4.12,7.57 7.13,10.58 3.01,3.01 6.54,5.38 10.61,7.12 4.04,1.75 8.36,2.62 12.95,2.62 4.56,0 8.87,-0.87 12.91,-2.62 4.08,-1.74 7.6,-4.11 10.61,-7.12 3.01,-3.01 5.39,-6.54 7.13,-10.58 1.74,-4 2.61,-8.31 2.61,-12.87l0 -99.86 33.31 0 0 99.86zm161.95 16.6c0,6.89 -1.31,13.34 -3.96,19.4 -2.61,6.02 -6.18,11.28 -10.73,15.8 -4.52,4.55 -9.78,8.12 -15.8,10.73 -6.06,2.65 -12.51,3.96 -19.4,3.96l-83.16 0 0 -166.35 83.16 0c6.89,0 13.34,1.31 19.4,3.92 6.02,2.65 11.28,6.22 15.8,10.73 4.55,4.56 8.12,9.82 10.73,15.84 2.65,6.06 3.96,12.51 3.96,19.4 0,3.09 -0.44,6.26 -1.27,9.51 -0.87,3.24 -2.06,6.37 -3.6,9.38 -1.55,3.01 -3.41,5.78 -5.59,8.24 -2.13,2.49 -4.55,4.51 -7.16,6.13 2.69,1.47 5.15,3.49 7.28,5.98 2.18,2.54 4.04,5.31 5.59,8.32 1.54,3.01 2.73,6.14 3.52,9.42 0.83,3.29 1.23,6.5 1.23,9.59zm-99.79 16.59l49.9 0c2.33,0 4.51,-0.44 6.49,-1.27 2.02,-0.87 3.8,-2.02 5.31,-3.52 1.5,-1.51 2.65,-3.29 3.52,-5.31 0.83,-1.98 1.27,-4.16 1.27,-6.49 0,-2.3 -0.44,-4.48 -1.27,-6.5 -0.87,-2.02 -2.02,-3.76 -3.52,-5.26 -1.51,-1.51 -3.29,-2.7 -5.31,-3.53 -1.98,-0.87 -4.16,-1.31 -6.49,-1.31l-49.9 0 0 33.19zm0 -66.49l49.9 0c2.33,0 4.51,-0.39 6.49,-1.26 2.02,-0.84 3.8,-2.02 5.31,-3.53 1.5,-1.5 2.65,-3.28 3.52,-5.34 0.83,-2.06 1.27,-4.24 1.27,-6.54 0,-2.33 -0.44,-4.51 -1.27,-6.53 -0.87,-1.98 -2.02,-3.76 -3.52,-5.27 -1.51,-1.5 -3.29,-2.69 -5.31,-3.52 -1.98,-0.87 -4.16,-1.27 -6.49,-1.27l-49.9 0 0 33.26z"/>
  <path class="fil1" d="M325.68 180.73l315.44 0c5.05,0 9.18,4.13 9.18,9.18l0 68.89c0,5.05 -4.13,9.18 -9.18,9.18l-315.44 0c-5.05,0 -9.19,-4.13 -9.19,-9.18l0 -68.89c0,-5.05 4.14,-9.18 9.19,-9.18z"/>
  <path class="fil2" d="M356.81 214.56c-1.38,-0.6 -2.76,-0.9 -4.14,-0.9 -2.81,0 -5.24,1.02 -7.28,3.06 -2.03,2.03 -3.05,4.46 -3.05,7.28l0 28.85 -6.11 0 0 -28.85c0,-3.24 0.85,-6.19 2.56,-8.86 1.7,-2.66 3.94,-4.65 6.69,-5.97l0.18 -0.09c2.22,-1.02 4.56,-1.53 7.01,-1.53 3.84,0 7.25,1.17 10.25,3.5l-6.11 3.51zm19.77 19.14c0.72,3.84 2.61,7.03 5.66,9.58 3.06,2.54 6.56,3.81 10.52,3.81 2.93,0 5.63,-0.68 8.09,-2.06 2.45,-1.38 4.43,-3.27 5.93,-5.66l5.3 3.05c-2.04,3.3 -4.76,5.93 -8.18,7.91 -3.41,1.98 -7.13,2.97 -11.14,2.97 -4.08,0 -7.85,-1.02 -11.33,-3.06 -3.47,-2.04 -6.23,-4.79 -8.26,-8.27 -2.04,-3.47 -3.06,-7.25 -3.06,-11.32 0,-4.14 1.02,-7.93 3.06,-11.37 2.03,-3.45 4.79,-6.19 8.26,-8.23 3.48,-2.03 7.25,-3.05 11.33,-3.05 4.07,0 7.85,1.02 11.32,3.05 3.48,2.04 6.23,4.78 8.27,8.23 2.04,3.44 3.06,7.23 3.06,11.37 0,0.72 -0.06,1.74 -0.18,3.05l-38.65 0zm16.18 -19.59c-2.64,0 -5.21,0.61 -7.73,1.84 -2.52,1.23 -4.56,2.91 -6.11,5.04 -1.56,2.12 -2.34,4.42 -2.34,6.87l32.36 0c0,-2.45 -0.78,-4.75 -2.34,-6.87 -1.56,-2.13 -3.58,-3.81 -6.07,-5.04 -2.48,-1.23 -5.08,-1.84 -7.77,-1.84zm74.33 -5.03l0 43.77 -6.2 0 0 -8.27c-4.14,5.81 -9.65,8.72 -16.54,8.72 -4.14,0 -7.94,-1.01 -11.42,-3.01 -3.47,-2.01 -6.21,-4.75 -8.22,-8.23 -2.01,-3.47 -3.01,-7.25 -3.01,-11.32 0,-4.14 1,-7.94 3.01,-11.42 2.01,-3.47 4.75,-6.21 8.22,-8.22 3.48,-2.01 7.28,-3.01 11.42,-3.01 4.25,0 7.74,0.88 10.47,2.65 2.73,1.77 4.75,3.67 6.07,5.71l0 -7.37 6.2 0zm-22.74 38.1c2.99,0 5.75,-0.73 8.27,-2.2 2.51,-1.46 4.51,-3.46 5.97,-5.97 1.47,-2.52 2.21,-5.28 2.21,-8.27 0,-3 -0.74,-5.77 -2.21,-8.32 -1.46,-2.54 -3.46,-4.55 -5.97,-6.02 -2.52,-1.47 -5.28,-2.2 -8.27,-2.2 -3,0 -5.77,0.73 -8.32,2.2 -2.54,1.47 -4.55,3.48 -6.02,6.02 -1.47,2.55 -2.2,5.32 -2.2,8.32 0,2.99 0.73,5.75 2.2,8.27 1.47,2.51 3.48,4.51 6.02,5.97 2.55,1.47 5.32,2.2 8.32,2.2zm37.84 -54.1l0 59.77 -6.12 0 0 -59.77 6.12 0zm29.21 20.94l-7.46 0 0 38.83 -6.21 0 0 -38.83 -7.46 0 0 -6.11 7.46 0 0 -14.83 6.21 0 0 14.83 7.46 0 0 6.11zm27.23 39.28c-4.08,0 -7.87,-1.02 -11.37,-3.06 -3.51,-2.04 -6.28,-4.81 -8.31,-8.31 -2.04,-3.51 -3.06,-7.3 -3.06,-11.37 0,-4.14 1.02,-7.96 3.06,-11.46 2.03,-3.51 4.8,-6.29 8.31,-8.36 3.5,-2.07 7.29,-3.1 11.37,-3.1 4.13,0 7.95,1.03 11.46,3.1 3.5,2.07 6.29,4.85 8.36,8.36 2.06,3.5 3.1,7.32 3.1,11.46 0,4.07 -1.04,7.86 -3.1,11.37 -2.07,3.5 -4.86,6.27 -8.36,8.31 -3.51,2.04 -7.33,3.06 -11.46,3.06zm0 -6.03c3.05,0 5.85,-0.74 8.4,-2.24 2.55,-1.5 4.57,-3.54 6.07,-6.11 1.5,-2.58 2.24,-5.37 2.24,-8.36 0,-3.06 -0.74,-5.87 -2.24,-8.45 -1.5,-2.58 -3.52,-4.61 -6.07,-6.11 -2.55,-1.5 -5.35,-2.25 -8.4,-2.25 -3,0 -5.77,0.75 -8.32,2.25 -2.54,1.5 -4.56,3.53 -6.06,6.11 -1.5,2.58 -2.25,5.39 -2.25,8.45 0,2.99 0.75,5.78 2.25,8.36 1.5,2.57 3.52,4.61 6.06,6.11 2.55,1.5 5.32,2.24 8.32,2.24zm51.59 -32.71c-1.38,-0.6 -2.76,-0.9 -4.14,-0.9 -2.81,0 -5.24,1.02 -7.28,3.06 -2.03,2.03 -3.05,4.46 -3.05,7.28l0 28.85 -6.11 0 0 -28.85c0,-3.24 0.85,-6.19 2.56,-8.86 1.7,-2.66 3.94,-4.65 6.69,-5.97l0.18 -0.09c2.22,-1.02 4.56,-1.53 7.01,-1.53 3.84,0 7.25,1.17 10.25,3.5l-6.11 3.51zm15.1 26.24c0.48,1.68 1.22,3 2.24,3.96 1.68,1.56 4.14,2.33 7.37,2.33 2.82,0 5.1,-0.65 6.83,-1.97 1.74,-1.32 2.61,-3.03 2.61,-5.13 0,-1.97 -0.39,-3.44 -1.17,-4.4 -0.78,-0.96 -1.78,-1.57 -3.01,-1.84 -1.23,-0.27 -2.92,-0.44 -5.08,-0.5 -3.11,-0.18 -5.66,-0.52 -7.64,-1.03 -1.97,-0.51 -3.77,-1.66 -5.39,-3.46 -1.98,-2.46 -2.97,-5.15 -2.97,-8.09 0,-0.72 0.03,-1.26 0.09,-1.62 0.48,-3.77 2.07,-6.66 4.77,-8.67 2.69,-2.01 6.32,-3.01 10.87,-3.01l0.09 0c3.36,0 6.08,0.63 8.18,1.89 2.1,1.26 3.72,2.78 4.85,4.58 1.2,1.98 1.95,4.05 2.25,6.2l-6.29 0c-0.12,-0.84 -0.51,-1.83 -1.17,-2.96 -1.5,-2.28 -4.1,-3.48 -7.82,-3.6 -3.77,0 -6.26,0.63 -7.46,1.89 -1.19,1.26 -1.91,2.72 -2.15,4.4 -0.06,0.24 -0.09,0.57 -0.09,0.99 0,1.44 0.51,2.73 1.52,3.87 0.84,1.01 1.92,1.69 3.24,2.02 1.32,0.33 3.21,0.58 5.66,0.76 1.98,0.12 3.67,0.3 5.08,0.54 1.41,0.24 2.74,0.69 4,1.35 3.89,2.1 5.84,5.66 5.84,10.69 0,1.74 -0.34,3.4 -1.03,4.99 -0.69,1.59 -1.66,2.98 -2.92,4.18 -2.82,2.76 -6.68,4.14 -11.6,4.14 -4.79,0 -8.69,-1.35 -11.68,-4.05 -2.34,-2.27 -3.78,-5.09 -4.31,-8.45l6.29 0z"/>
 </g>
</svg>
